<svg id="set_of_emotion_face" data-name="set of emotion face" xmlns="http://www.w3.org/2000/svg" xmlns:xlink="http://www.w3.org/1999/xlink" viewBox="0 0 350 420.49"><defs><style>.cls-1,.cls-5{fill:#d2e3f2;}.cls-1,.cls-17{stroke:#fff;stroke-width:10px;}.cls-1,.cls-14,.cls-15,.cls-17{stroke-miterlimit:10;}.cls-2{fill:#231f20;}.cls-3{fill:#be1e2d;}.cls-10,.cls-12,.cls-16,.cls-17,.cls-4{fill:none;}.cls-10,.cls-4{stroke:#d6dfeb;}.cls-10,.cls-12,.cls-16,.cls-4{stroke-linecap:round;stroke-linejoin:round;}.cls-12,.cls-4{stroke-width:2px;}.cls-6{clip-path:url(#clip-path);}.cls-7{fill:#2b629b;}.cls-8{fill:#0b528c;}.cls-9{fill:#084279;}.cls-10{stroke-width:8px;}.cls-11{fill:#282f39;}.cls-12{stroke:#e1e5e5;}.cls-13{fill:#d6dfeb;}.cls-14,.cls-18{fill:#fff;}.cls-14,.cls-15,.cls-16{stroke:#000;}.cls-14,.cls-15{stroke-width:2.1px;}.cls-16{stroke-width:3px;}</style><clipPath id="clip-path" transform="translate(-2.59 12.68)"><circle class="cls-1" cx="177.59" cy="212.52" r="170"/></clipPath></defs><title>Avatar_RobyCoder_RZ_neutral</title><rect class="cls-2" x="173.06" y="36.17" width="3.88" height="57.61"/><path class="cls-3" d="M177.59,23.49h0A10.58,10.58,0,0,1,167,12.91h0A10.58,10.58,0,0,1,177.59,2.32h0a10.58,10.58,0,0,1,10.58,10.59h0A10.58,10.58,0,0,1,177.59,23.49Z" transform="translate(-2.59 12.68)"/><path class="cls-4" d="M171.24,12.91a6.35,6.35,0,0,1,8.82-5.85" transform="translate(-2.59 12.68)"/><circle class="cls-5" cx="175" cy="225.19" r="170"/><g class="cls-6"><path class="cls-7" d="M315.42,406.92h0a6.39,6.39,0,0,0,2.23-8.75L247,279.28a6.39,6.39,0,0,0-8.75-2.23h0A6.38,6.38,0,0,0,236,285.8l70.68,118.9A6.39,6.39,0,0,0,315.42,406.92Z" transform="translate(-2.59 12.68)"/><path class="cls-7" d="M39.76,406.92h0a6.39,6.39,0,0,1-2.23-8.75l70.69-118.89a6.39,6.39,0,0,1,8.75-2.23h0a6.38,6.38,0,0,1,2.22,8.75L48.51,404.7A6.39,6.39,0,0,1,39.76,406.92Z" transform="translate(-2.59 12.68)"/><path class="cls-8" d="M204.27,232.5l.51,24.48-56.15,1.18-.52-24.48a80,80,0,0,0,56.16-1.18Z" transform="translate(-2.59 12.68)"/><path class="cls-9" d="M204.22,230.29l.27,13c-7.15,3.59-15.23,3.56-23.76,3.74-12.06.26-23.32-4.42-32.57-10.77l-.07-3.69c7,3.9,14.85,4.22,23.35,4.78C183.4,238.11,194.73,236.13,204.22,230.29Z" transform="translate(-2.59 12.68)"/><path class="cls-7" d="M244.28,393.86l8.53-99.44a.66.66,0,0,0,0-.14,45.74,45.74,0,0,0-46.71-44.7l-59.21,1.25a45.74,45.74,0,0,0-44.78,46.64s0,.09,0,.13l12.73,99" transform="translate(-2.59 12.68)"/><path class="cls-8" d="M238.72,382.27l12.65-98.46a45.59,45.59,0,0,1,1.45,10.47.65.65,0,0,0,0,.14l-8.54,99.44" transform="translate(-2.59 12.68)"/><path class="cls-10" d="M128.07,388.37V388l-11.46-89.13A34.52,34.52,0,0,1,150.35,264l53.29-1.13" transform="translate(-2.59 12.68)"/><rect class="cls-7" x="119.78" y="93.78" width="110.43" height="158.82" rx="52.17"/><path class="cls-8" d="M232.8,137.34v48.39a55.23,55.23,0,0,1-103.41,27,55.22,55.22,0,0,0,99-28.59l4.22-48.2c.06-.57.1-1.14.12-1.7C232.77,135.23,232.8,136.28,232.8,137.34Z" transform="translate(-2.59 12.68)"/><path class="cls-10" d="M129.78,136.32a47.78,47.78,0,0,1,71.6-41.45" transform="translate(-2.59 12.68)"/><rect class="cls-9" x="110.09" y="131.95" width="129.83" height="22.23" rx="5"/><rect class="cls-2" x="173.06" y="21.17" width="3.88" height="72.61"/><path class="cls-11" d="M177.59,8.49h0A10.58,10.58,0,0,1,167-2.09h0a10.58,10.58,0,0,1,10.58-10.59h0A10.58,10.58,0,0,1,188.17-2.09h0A10.58,10.58,0,0,1,177.59,8.49Z" transform="translate(-2.59 12.68)"/><path class="cls-12" d="M171.24-2.09a6.36,6.36,0,0,1,6.35-6.35,6.34,6.34,0,0,1,2.47.5" transform="translate(-2.59 12.68)"/><path class="cls-8" d="M214.13,189.19l-34.95-3.33-35,3.33a13.37,13.37,0,0,1-13.34-13.33V162.52a13.37,13.37,0,0,1,13.34-13.33l35,3.33,34.95-3.33a13.37,13.37,0,0,1,13.33,13.33v13.34A13.37,13.37,0,0,1,214.13,189.19Z" transform="translate(-2.59 12.68)"/><path class="cls-13" d="M211.48,186.55l-34.95-3.34-34.95,3.34a13.37,13.37,0,0,1-13.33-13.34V159.88a13.37,13.37,0,0,1,13.33-13.34l34.95,3.34,34.95-3.34a13.38,13.38,0,0,1,13.34,13.34v13.33A13.38,13.38,0,0,1,211.48,186.55Z" transform="translate(-2.59 12.68)"/><circle class="cls-14" cx="147.48" cy="181.51" r="12.62"/><circle class="cls-15" cx="150.15" cy="182.85" r="6.31"/><circle class="cls-14" cx="200.4" cy="181.51" r="12.62"/><circle class="cls-15" cx="197.73" cy="182.85" r="6.31"/><path class="cls-16" d="M217.37,201v-6.15c-8.3,1.95-29.11,4.23-29.11,4.23s-34.55-1.07-46.57-3.7" transform="translate(-2.59 12.68)"/></g><circle class="cls-17" cx="175" cy="225.19" r="170"/><path class="cls-18" d="M206.06,358.23h0Z" transform="translate(-2.59 12.68)"/><path class="cls-18" d="M210,329.44l-.15.55-.19.83s-3.08,13.69-3.56,15.85c-.13-.57-3.08-14.23-3.08-14.23-.13-.58-.31-1.34-.54-2l-.2-.58a5.52,5.52,0,0,0-10.11-.21c-.15.41-.29.86-.43,1.39s-.23,1-.32,1.45l-3,14.28c-.14-.56-3.83-15.93-3.83-15.93l-.16-.65c-.11-.4-.2-.72-.3-1a4.5,4.5,0,0,0-4.12-2.73,4.59,4.59,0,0,0-3.42,1.55,4.44,4.44,0,0,0-1.08,2.6v.2a7.14,7.14,0,0,0,0,.8,10.93,10.93,0,0,0,.55,2.39l6,19.54.13.41.31.9a5.84,5.84,0,0,0,5.31,3.5h0a5.81,5.81,0,0,0,5.41-3.69l.27-1h0l.05-.19s3.41-13.59,3.54-14.08c.12.5,3.58,14.27,3.58,14.27l.25.91a5.86,5.86,0,0,0,5.43,3.76h.05a5.85,5.85,0,0,0,5.26-3.4c.12-.33.25-.68.37-1.09l.11-.33,6-19.53a11.07,11.07,0,0,0,.55-2.39,7.14,7.14,0,0,0,0-.8v-.2a4.5,4.5,0,0,0-1.08-2.6,4.59,4.59,0,0,0-3.42-1.55A4.51,4.51,0,0,0,210,329.44Z" transform="translate(-2.59 12.68)"/><path class="cls-18" d="M189.8,285.72V319.4a4.7,4.7,0,0,0,9.39.06V305.87a5.75,5.75,0,0,1,5.64-5.85c4,0,4.56,3.17,4.56,5.06v14.4a4.7,4.7,0,0,0,9.4-.08V303.46c0-7.13-4.09-11.38-10.93-11.38a11.81,11.81,0,0,0-8.67,3.46v-9.91a4.7,4.7,0,0,0-9.39.09Z" transform="translate(-2.59 12.68)"/><path class="cls-18" d="M174.52,353.06a12.19,12.19,0,0,1-.55-3.94V335.36c0-5.73-4.89-8.88-13.77-8.88-8.34,0-13.47,3.94-13.47,7.73a3.8,3.8,0,0,0,6.21,3,11.73,11.73,0,0,0,1.19-1.06,7.58,7.58,0,0,1,6-2.63c2.27,0,4.7.77,4.7,2.91,0,1.86-1.05,2.32-3.12,2.56l-5,.56c-5.87.68-11.87,2.39-11.87,9.9,0,5.53,5,8.83,9.73,8.83A14.6,14.6,0,0,0,165.46,354c.45,2.73,2.25,4.22,5.18,4.22,2.34,0,4.17-1.58,4.17-3.61A5.24,5.24,0,0,0,174.52,353.06Zm-9.21-6.64c0,3-2.76,6-7.25,6-2.8,0-4.54-1.52-4.54-3.37,0-2.47,1.85-3.54,5.27-4.05l3-.44a7.45,7.45,0,0,0,3.54-1.3Z" transform="translate(-2.59 12.68)"/><polygon class="cls-18" points="157.73 310.38 157.73 310.38 157.73 310.38 157.73 310.38"/><path class="cls-18" d="M164.1,293.54a4.94,4.94,0,0,0-1.28.17,3.82,3.82,0,0,0,0,7.25,4.67,4.67,0,0,0,1.29.18h10.48l-14.51,15.78a4.75,4.75,0,0,0-1.23,3.38v.18a3.89,3.89,0,0,0,4,3.61H184a4.42,4.42,0,0,0,1.31-.19,3.81,3.81,0,0,0,0-7.23h0a4.64,4.64,0,0,0-1.3-.18H171.86l14.24-15.61a4.88,4.88,0,0,0,1.45-3.16v-.4a4.8,4.8,0,0,0-.48-1.84,3.47,3.47,0,0,0-2.05-1.74,4.71,4.71,0,0,0-1.43-.21Z" transform="translate(-2.59 12.68)"/><rect class="cls-2" x="173.05" y="36.28" width="3.9" height="48"/><path class="cls-3" d="M177.59,23.6h0A10.64,10.64,0,0,1,167,13h0A10.64,10.64,0,0,1,177.59,2.32h0A10.64,10.64,0,0,1,188.23,13h0A10.64,10.64,0,0,1,177.59,23.6Z" transform="translate(-2.59 12.68)"/><path class="cls-4" d="M171.21,13a6.38,6.38,0,0,1,8.86-5.88" transform="translate(-2.59 12.68)"/></svg>