<?xml version="1.0" encoding="utf-8"?>
<!-- Generator: Adobe Illustrator 24.0.1, SVG Export Plug-In . SVG Version: 6.00 Build 0)  -->
<svg version="1.1" xmlns="http://www.w3.org/2000/svg" xmlns:xlink="http://www.w3.org/1999/xlink" x="0px" y="0px"
	 viewBox="0 0 351.33 351" style="enable-background:new 0 0 351.33 351;" xml:space="preserve">
<style type="text/css">
	.st0{display:none;}
	.st1{display:inline;fill:#1C75BC;}
	.st2{fill:#D2E3F2;stroke:#FFFFFF;stroke-width:10;stroke-miterlimit:10;}
	.st3{fill:#FFFFFF;}
	.st4{fill:#2B629B;}
</style>
<g id="bg_color" class="st0">
	<rect x="-9.66" y="-20.44" class="st1" width="383.1" height="388.89"/>
</g>
<g id="set_of_emotion_face">
	<g>
		<circle class="st2" cx="175.67" cy="175.5" r="170"/>
	</g>
	<g>
		<g>
			<g>
				<path class="st3" d="M99.66,197.26h0.28l12.56-46.71c1.41-5.22,4.23-9.17,9.88-9.17c8.19,0,10.58,6.77,10.58,9.31
					c0,1.69-0.56,3.81-1.55,6.49l-23.85,67.6c-4.94,14.11-10.58,21.45-23.57,21.45c-9.17,0-12.98-4.52-12.98-9.46
					c0-5.5,3.95-8.33,9.46-8.33h2.12c2.68,0,5.64-0.14,7.2-6.49l-21.45-61.11c-1.69-4.94-2.54-7.2-2.54-9.6
					c0-5.65,4.52-9.88,10.02-9.88s9.31,3.1,10.58,7.76L99.66,197.26z"/>
				<path class="st3" d="M174.74,141.38c24.84,0,38.1,16.94,38.1,38.67c0,20.6-10.02,38.81-38.1,38.81
					c-28.08,0-38.1-18.21-38.1-38.81C136.64,158.31,149.9,141.38,174.74,141.38z M174.74,203.62c12.28,0,17.5-11.01,17.5-23.57
					c0-13.41-5.5-23.43-17.5-23.43s-17.5,10.02-17.5,23.43C157.24,192.61,162.47,203.62,174.74,203.62z"/>
				<path class="st3" d="M294.56,208.55c0,6.21-2.82,10.3-9.31,10.3s-9.31-4.09-9.31-10.3v-2.68h-0.28
					c-5.79,7.62-13.27,12.98-24.98,12.98c-12.42,0-25.97-6.21-25.97-27.1v-40.08c0-5.5,2.26-10.3,10.3-10.3
					c8.04,0,10.3,4.8,10.3,10.3v35.99c0,8.33,4.09,14.25,12.98,14.25c7.2,0,15.67-5.93,15.67-16.23v-34.01
					c0-5.5,2.26-10.3,10.3-10.3c8.04,0,10.3,4.8,10.3,10.3V208.55z"/>
			</g>
		</g>
		<g>
			<g>
				<path class="st4" d="M91.99,190.8h0.28l12.56-46.71c1.41-5.22,4.23-9.17,9.88-9.17c8.19,0,10.58,6.77,10.58,9.31
					c0,1.69-0.56,3.81-1.55,6.49l-23.85,67.6c-4.94,14.11-10.58,21.45-23.57,21.45c-9.17,0-12.98-4.52-12.98-9.46
					c0-5.5,3.95-8.33,9.46-8.33h2.12c2.68,0,5.64-0.14,7.2-6.49l-21.45-61.11c-1.69-4.94-2.54-7.2-2.54-9.6
					c0-5.65,4.52-9.88,10.02-9.88s9.31,3.1,10.58,7.76L91.99,190.8z"/>
				<path class="st4" d="M167.07,134.91c24.84,0,38.1,16.93,38.1,38.67c0,20.6-10.02,38.81-38.1,38.81
					c-28.08,0-38.1-18.21-38.1-38.81C128.97,151.84,142.23,134.91,167.07,134.91z M167.07,197.15c12.28,0,17.5-11.01,17.5-23.57
					c0-13.41-5.5-23.43-17.5-23.43s-17.5,10.02-17.5,23.43C149.57,186.14,154.79,197.15,167.07,197.15z"/>
				<path class="st4" d="M286.89,202.09c0,6.21-2.82,10.3-9.31,10.3s-9.31-4.09-9.31-10.3v-2.68h-0.28
					c-5.79,7.62-13.27,12.98-24.98,12.98c-12.42,0-25.97-6.21-25.97-27.1v-40.08c0-5.5,2.26-10.3,10.3-10.3
					c8.04,0,10.3,4.8,10.3,10.3v35.99c0,8.33,4.09,14.25,12.98,14.25c7.2,0,15.67-5.93,15.67-16.23v-34.01
					c0-5.5,2.26-10.3,10.3-10.3c8.04,0,10.3,4.8,10.3,10.3V202.09z"/>
			</g>
		</g>
	</g>
</g>
</svg>
