<?xml version="1.0" encoding="utf-8"?>
<!-- Generator: Adobe Illustrator 24.0.1, SVG Export Plug-In . SVG Version: 6.00 Build 0)  -->
<svg version="1.1" xmlns="http://www.w3.org/2000/svg" xmlns:xlink="http://www.w3.org/1999/xlink" x="0px" y="0px"
	 viewBox="0 0 365.67 427.85" style="enable-background:new 0 0 365.67 427.85;" xml:space="preserve">
<style type="text/css">
	.st0{display:none;}
	.st1{display:inline;fill:#1C75BC;}
	.st2{clip-path:url(#SVGID_2_);}
	.st3{fill:#2B629B;}
	.st4{fill:#0B528C;}
	.st5{fill:none;stroke:#D6DFEB;stroke-width:8;stroke-linecap:round;stroke-linejoin:round;stroke-miterlimit:10;}
	.st6{fill:#BE1E2D;}
	.st7{fill:#084279;}
	.st8{fill:none;stroke:#D6DFEB;stroke-width:4;stroke-linecap:round;stroke-linejoin:round;stroke-miterlimit:10;}
	.st9{fill:#231F20;}
	.st10{fill:#25578E;}
	.st11{fill:#D6DFEB;}
	.st12{fill:#FFFFFF;stroke:#000000;stroke-width:3;stroke-miterlimit:10;}
	.st13{stroke:#000000;stroke-width:1.5676;stroke-miterlimit:10;}
	.st14{fill:none;stroke:#000000;stroke-width:4;stroke-linecap:round;stroke-linejoin:round;stroke-miterlimit:10;}
	.st15{fill:#FFFFFF;}
	.st16{fill:none;stroke:#231F20;stroke-width:4;stroke-miterlimit:10;}
	.st17{fill:#FFFFB3;}
	.st18{fill:none;stroke:#FFFFFF;stroke-width:4;stroke-linecap:round;stroke-linejoin:round;stroke-miterlimit:10;}
	.st19{fill:none;stroke:#231F20;stroke-width:2;stroke-linecap:round;stroke-linejoin:round;stroke-miterlimit:10;}
	.st20{fill:none;stroke:#000000;stroke-width:3;stroke-linecap:round;stroke-linejoin:round;stroke-miterlimit:10;}
	.st21{fill:#FFF042;}
</style>
<g id="bg_color" class="st0">
	<rect x="-4.99" class="st1" width="370.66" height="433.3"/>
</g>
<g id="set_of_emotion_face">
	<g>
		<g>
			<defs>
				<circle id="SVGID_1_" cx="175.28" cy="252.15" r="170"/>
			</defs>
			<use xlink:href="#SVGID_1_"  style="overflow:visible;fill:#D2E3F2;"/>
			<clipPath id="SVGID_2_">
				<use xlink:href="#SVGID_1_"  style="overflow:visible;"/>
			</clipPath>
			<g class="st2">
				<g>
					<path class="st3" d="M358.14,257.19L358.14,257.19c1.79,3.04,0.77,6.95-2.26,8.74l-116.5,68c-3.04,1.79-6.95,0.77-8.74-2.26
						l0,0c-1.79-3.04-0.77-6.95,2.26-8.74l116.5-68C352.44,253.14,356.35,254.15,358.14,257.19z"/>
					<g>
						<path class="st4" d="M320.9,145.76c-0.59-1.08-1.17-2.16-1.77-3.22c-0.57-1.01-1.85-1.38-2.87-0.83l-45.07,24.35
							c-1.02,0.55-1.42,1.82-0.88,2.85c0.56,1.08,1.14,2.16,1.72,3.24c22.42,41.5,66.69,97.32,80.19,90.03
							C365.72,254.9,343.32,187.26,320.9,145.76z"/>
						<path class="st5" d="M279.39,170.09c10.2,18.6,25.03,40.39,38.99,57.26c7.85,9.49,14.15,15.92,18.99,20.21"/>
						<g>
							<path class="st6" d="M256.08,124.93l0.66-0.36c1.94-1.05,4.37-0.33,5.42,1.61l16.03,28.73c1.05,1.94,0.33,4.37-1.61,5.42
								l-0.66,0.36c-1.94,1.05-4.37,0.33-5.42-1.61l-16.03-28.73C253.42,128.41,254.14,125.99,256.08,124.93z"/>
							<path class="st6" d="M286.07,126.91L286.07,126.91c-2.11,1.17-2.88,3.83-1.72,5.94l7.99,14.13c1.17,2.11,3.83,2.88,5.94,1.72
								l0,0c2.11-1.17,2.88-3.83,1.72-5.94l-7.99-14.13C290.85,126.52,288.19,125.75,286.07,126.91z"/>
							<path class="st6" d="M297.12,120.99L297.12,120.99c-2.11,1.17-2.88,3.83-1.72,5.94l7.99,14.13c1.17,2.11,3.83,2.88,5.94,1.72
								h0c2.11-1.17,2.88-3.83,1.72-5.94l-7.99-14.13C301.9,120.59,299.24,119.82,297.12,120.99z"/>
							<path class="st6" d="M275.02,132.84L275.02,132.84c-2.11,1.17-2.88,3.83-1.72,5.94l7.99,14.13c1.17,2.11,3.83,2.88,5.94,1.72
								l0,0c2.11-1.17,2.88-3.83,1.72-5.94l-7.99-14.13C279.8,132.44,277.14,131.67,275.02,132.84z"/>
						</g>
					</g>
					<g>
						
							<ellipse transform="matrix(0.9529 -0.3033 0.3033 0.9529 -62.407 118.8495)" class="st7" cx="351.44" cy="260.35" rx="14.47" ry="11.49"/>
						<path class="st8" d="M361.17,257.25c-1.19-3.74-6.65-5.48-11.93-3.8c-1.72,0.55-3.24,1.4-4.47,2.43"/>
					</g>
				</g>
				<g>
					<g>
						<path class="st3" d="M31.76,447.24L31.76,447.24c-3.03-1.8-4.03-5.72-2.22-8.75l70.69-118.89c1.8-3.03,5.72-4.03,8.75-2.22
							l0,0c3.03,1.8,4.03,5.72,2.22,8.75L40.51,445.02C38.71,448.05,34.79,449.05,31.76,447.24z"/>
					</g>
					<path class="st4" d="M196.95,272.13l0.52,24.48l-56.16,1.19l-0.52-24.48c8.8,3.11,18.31,4.7,28.19,4.49
						C178.86,277.6,188.29,275.61,196.95,272.13z"/>
					<path class="st7" d="M196.91,269.92l0.27,12.98c-7.15,3.59-15.23,3.56-23.76,3.74c-12.06,0.25-23.33-4.42-32.57-10.77
						l-0.08-3.69c6.97,3.91,14.85,4.22,23.35,4.79C176.09,277.75,187.42,275.77,196.91,269.92z"/>
					<path class="st3" d="M235.69,434.18l8.53-99.44c0-0.04,0.01-0.09,0-0.14c-0.57-25.23-21.47-45.24-46.71-44.71l-59.22,1.25
						c-25.24,0.53-45.27,21.41-44.78,46.64c0,0.05,0,0.09,0.01,0.13l12.73,98.99"/>
					<path class="st4" d="M231.41,421.91l12.65-98.46c0.87,3.36,1.37,6.86,1.46,10.47c0,0.05-0.01,0.1-0.01,0.14l-8.53,99.44"/>
					<path class="st5" d="M120.76,428l-0.01-0.36l-11.46-89.13c-0.22-18.85,14.86-34.46,33.74-34.86l53.29-1.13"/>
					<g>
						<g>
							<path class="st3" d="M171.58,279.3h-5.41c-28.81,0-52.17-23.36-52.17-52.17v-53.5c0-28.81,23.36-52.17,52.17-52.17h5.41
								c28.81,0,52.17,23.36,52.17,52.17v53.5C223.75,255.94,200.4,279.3,171.58,279.3z"/>
							<path class="st4" d="M224.44,175.66v48.09c0,30.31-24.57,54.87-54.87,54.87c-15.16,0-28.87-6.14-38.8-16.07
								c-3.56-3.56-6.63-7.59-9.1-12.01c9.04,11.9,22.87,20.08,38.92,21.48c30.2,2.64,56.81-19.69,59.45-49.89l4.2-47.9
								c0.05-0.57,0.09-1.14,0.12-1.69C224.41,173.57,224.44,174.61,224.44,175.66z"/>
							<path class="st5" d="M122.05,175.65c0-26.2,21.31-47.51,47.51-47.51c8.6,0,16.68,2.3,23.65,6.31"/>
							<path class="st7" d="M229.08,180.79H110.05c-2.76,0-5-2.24-5-5V163.7c0-2.76,2.24-5,5-5h119.03c2.76,0,5,2.24,5,5v12.09
								C234.08,178.55,231.84,180.79,229.08,180.79z"/>
							<line class="st9" x1="171.49" y1="120.77" x2="167.64" y2="120.77"/>
							<path class="st10" d="M205.87,228.19l-34.73-3.31l-34.73,3.31c-7.29,0-13.25-5.96-13.25-13.25v-13.25
								c0-7.29,5.96-13.25,13.25-13.25l34.73,3.31l34.73-3.31c7.29,0,13.25,5.96,13.25,13.25v13.25
								C219.13,222.23,213.16,228.19,205.87,228.19z"/>
							<path class="st11" d="M203.25,225.56l-34.73-3.31l-34.73,3.31c-7.29,0-13.25-5.96-13.25-13.25v-13.25
								c0-7.29,5.96-13.25,13.25-13.25l34.73,3.31l34.73-3.31c7.29,0,13.25,5.96,13.25,13.25v13.25
								C216.5,219.6,210.53,225.56,203.25,225.56z"/>
						</g>
						<g>
							<path class="st12" d="M156.86,207.97c0,2.81-0.93,5.4-2.48,7.49c-3.36-0.35-7.1-0.38-11.14,0.15
								c-2.72,0.36-5.21,0.92-7.43,1.57c-2.47-2.28-4.03-5.56-4.03-9.2c0-6.93,5.62-12.54,12.54-12.54
								C151.24,195.43,156.86,201.03,156.86,207.97z"/>
							<path class="st13" d="M152.45,202.45c0,2.93-1.85,5.3-4.13,5.3c-2.28,0-4.13-2.37-4.13-5.3c0-2.93,1.85-5.3,4.13-5.3
								C150.6,197.15,152.45,199.53,152.45,202.45z"/>
							<path class="st14" d="M128.58,196.47c1.94-1.79,4.92-4.11,9.01-5.92c6.16-2.72,11.74-2.9,14.86-2.76"/>
							<path class="st12" d="M181.17,207.97c0,2.81,0.93,5.4,2.48,7.49c3.36-0.35,7.1-0.38,11.14,0.15
								c2.72,0.36,5.21,0.92,7.43,1.57c2.47-2.28,4.03-5.56,4.03-9.2c0-6.93-5.62-12.54-12.54-12.54
								C186.79,195.43,181.17,201.03,181.17,207.97z"/>
							<path class="st13" d="M194,202.45c0,2.93,1.85,5.3,4.13,5.3c2.28,0,4.13-2.37,4.13-5.3c0-2.93-1.85-5.3-4.13-5.3
								C195.85,197.15,194,199.53,194,202.45z"/>
							<path class="st14" d="M209.45,196.47c-1.94-1.79-4.92-4.11-9.01-5.92c-6.16-2.72-11.74-2.9-14.86-2.76"/>
						</g>
					</g>
					<g>
						<g>
							<path class="st15" d="M198.74,397.87c0.01,0,0.02,0,0.03,0c-0.02,0-0.03,0-0.05,0C198.73,397.87,198.74,397.87,198.74,397.87
								z"/>
							<g>
								<path class="st15" d="M202.73,369.08c0,0-0.15,0.55-0.15,0.55l-0.19,0.82c0,0-3.08,13.69-3.57,15.85
									c-0.12-0.57-3.08-14.22-3.08-14.22c-0.13-0.58-0.31-1.34-0.53-2.04l-0.2-0.58c-0.86-2.07-2.86-3.41-5.1-3.41
									c-2.14,0-4.11,1.26-5.01,3.2c-0.16,0.41-0.3,0.86-0.43,1.39c-0.13,0.49-0.23,1-0.33,1.44c0,0-2.61,12.26-3.04,14.28
									c-0.13-0.55-3.83-15.92-3.83-15.92l-0.16-0.65c-0.1-0.4-0.2-0.72-0.3-1.01c-0.71-1.66-2.33-2.73-4.12-2.73
									c-1.3,0-2.55,0.57-3.42,1.56c-0.64,0.73-1.01,1.63-1.08,2.6c0,0-0.01,0.2-0.01,0.2c0,0.27,0.01,0.53,0.04,0.79
									c0.09,0.93,0.32,1.68,0.55,2.39l6,19.54l0.13,0.41l0.31,0.9c0.92,2.12,3.01,3.49,5.31,3.5h0.04c2.4-0.01,4.52-1.45,5.4-3.68
									c0-0.01,0.28-0.98,0.28-0.98l0,0c0-0.01,0.05-0.19,0.05-0.19s3.41-13.6,3.53-14.09c0.12,0.5,3.58,14.27,3.58,14.27
									l0.26,0.91c0.85,2.24,3.03,3.75,5.43,3.76h0.05c2.25-0.01,4.32-1.35,5.26-3.4c0.12-0.33,0.24-0.68,0.37-1.09l0.1-0.33
									l6.01-19.54c0.22-0.72,0.46-1.47,0.55-2.39c0.02-0.27,0.04-0.53,0.04-0.79l-0.01-0.2c-0.07-0.97-0.45-1.87-1.08-2.6
									c-0.87-0.98-2.12-1.55-3.41-1.55C205.06,366.05,203.35,367.27,202.73,369.08z"/>
							</g>
						</g>
						<g>
							<g>
								<path class="st15" d="M182.49,325.35l0,33.68c0,2.59,2.11,4.7,4.7,4.7c2.56,0,4.66-2.08,4.7-4.63c0,0,0-0.07,0-0.07v-13.53
									c0-3.62,2.92-5.86,5.63-5.86c3.97,0,4.56,3.18,4.56,5.07v14.31l0,0.08c0.04,2.55,2.15,4.62,4.69,4.62
									c2.59,0,4.7-2.11,4.7-4.7v-15.94c0-7.13-4.09-11.38-10.93-11.38c-3.46,0-6.45,1.2-8.66,3.47c0-0.59,0-9.83,0-9.83v-0.08
									c-0.05-2.54-2.15-4.62-4.7-4.62C184.59,320.65,182.49,322.76,182.49,325.35z"/>
							</g>
						</g>
						<path class="st15" d="M167.21,392.7c-0.24-0.84-0.55-1.89-0.55-3.94V375c0-5.73-4.89-8.89-13.77-8.89
							c-8.33,0-13.47,3.95-13.47,7.74c0,2.1,1.7,3.81,3.81,3.81c0.91,0,1.75-0.32,2.4-0.86c0.42-0.31,0.8-0.68,1.19-1.06
							c1.26-1.23,2.7-2.63,6.01-2.63c2.27,0,4.7,0.76,4.7,2.9c0,1.87-1.05,2.33-3.12,2.57l-5,0.56c-5.87,0.68-11.87,2.39-11.87,9.9
							c0,5.53,4.95,8.83,9.73,8.83c4.49,0,7.97-1.36,10.87-4.22c0.46,2.73,2.26,4.22,5.18,4.22c2.34,0,4.17-1.59,4.17-3.61
							C167.5,393.7,167.36,393.24,167.21,392.7z M157.99,386.06c0,3.03-2.75,5.95-7.24,5.95c-2.81,0-4.55-1.52-4.55-3.37
							c0-2.47,1.85-3.54,5.28-4.04l2.98-0.45c0.95-0.17,2.64-0.45,3.54-1.29V386.06z"/>
						<g>
							<polygon class="st15" points="153.01,337.35 153.01,337.35 153.01,337.34 							"/>
							<g>
								<path class="st15" d="M156.79,333.17c-0.44,0-0.87,0.06-1.28,0.18c-1.57,0.51-2.63,1.97-2.63,3.62
									c0,1.66,1.05,3.11,2.62,3.62c0.41,0.12,0.85,0.18,1.29,0.18c0,0,9.9,0,10.48,0c-0.4,0.44-14.51,15.78-14.51,15.78
									c-0.81,0.88-1.23,2.01-1.23,3.38l0,0.18c0.08,1.66,1.36,3.5,3.99,3.61l0.26,0.01h20.88c0.45,0,0.89-0.06,1.3-0.18
									c1.56-0.52,2.61-1.97,2.61-3.62c0-1.65-1.05-3.1-2.61-3.62l0,0c-0.41-0.12-0.85-0.18-1.3-0.18c0,0-11.53,0-12.11,0
									c0.4-0.43,14.24-15.61,14.24-15.61c0.92-0.99,1.45-2.14,1.45-3.16l-0.01-0.4c-0.04-0.69-0.2-1.31-0.48-1.84
									c-0.43-0.84-1.14-1.45-2.05-1.74c-0.44-0.14-0.92-0.21-1.43-0.21H156.79z"/>
							</g>
						</g>
					</g>
				</g>
				<g>
					<rect x="167.85" y="72.13" class="st9" width="3.88" height="48.61"/>
					<g>
						<line class="st16" x1="169.56" y1="26.3" x2="169.56" y2="0"/>
						<line class="st16" x1="140.14" y1="40.78" x2="119.58" y2="30.26"/>
						<line class="st16" x1="152.61" y1="30.36" x2="138.63" y2="9.32"/>
						<line class="st16" x1="197.94" y1="40.78" x2="218.49" y2="30.26"/>
						<line class="st16" x1="185.86" y1="30.36" x2="199.84" y2="9.32"/>
					</g>
					<g>
						<g>
							<path class="st9" d="M178.46,83.4c2.28,0,3.75,2.33,2.86,4.44c-0.01,0.02-0.01,0.03-0.02,0.05c-0.87,2.07-1.12,4.39-2.17,6.4
								c-2.1,4.02-6.71,6.28-11.16,5.5c-4.25-0.74-7.22-3.91-8.45-7.9c-0.45-1.46-0.9-2.85-1.45-4.19c-0.84-2.05,0.7-4.3,2.92-4.3
								H178.46z"/>
							<g>
								<path class="st17" d="M169.47,86.58c-5.11-0.07-7.23-1.2-7.5-2.15c-0.06-0.2-0.26-0.73-0.48-1.29
									c-0.18-0.46-0.37-0.93-0.44-1.15c-0.67-2.19-1.46-4.53-2.66-6.8c-0.92-1.52-1.86-2.86-2.78-4.15
									c-2.04-2.87-3.97-5.58-4.74-9.1c-0.99-4.49-0.41-9.3,1.59-13.2c3.25-6.34,10.23-10.59,17.36-10.59l0.23,0
									c7.23,0.09,14.18,4.53,17.31,11.05c1.91,3.98,2.36,8.84,1.23,13.33c-0.33,1.29-0.85,2.56-1.6,3.89
									c-0.75,1.32-1.63,2.55-2.57,3.84c-1.1,1.53-2.25,3.12-3.21,4.94c-1.2,2.27-1.99,4.61-2.66,6.8
									c-0.07,0.22-0.26,0.69-0.44,1.15c-0.22,0.55-0.42,1.09-0.48,1.29c-0.27,0.95-2.39,2.08-7.5,2.15l-0.33,0L169.47,86.58z"/>
								<path class="st11" d="M169.82,39.73l0.21,0c6.64,0.09,13.03,4.17,15.91,10.15c1.75,3.65,2.16,8.12,1.12,12.26
									c-0.29,1.17-0.75,2.28-1.44,3.49c-0.71,1.25-1.57,2.44-2.48,3.7c-1.14,1.58-2.31,3.2-3.33,5.12
									c-1.27,2.39-2.08,4.82-2.78,7.07c-0.05,0.16-0.27,0.71-0.4,1.04c-0.25,0.64-0.4,1.02-0.5,1.32
									c-0.36,0.32-2.05,1.07-6.03,1.12l-0.31,0l-0.3,0c-3.99-0.05-5.68-0.81-6.04-1.12c-0.09-0.3-0.24-0.68-0.5-1.32
									c-0.13-0.33-0.35-0.88-0.4-1.03c-0.69-2.26-1.51-4.69-2.78-7.08l-0.04-0.08l-0.05-0.08c-0.9-1.5-1.87-2.86-2.8-4.17
									c-2.03-2.86-3.78-5.32-4.49-8.53c-0.91-4.14-0.38-8.56,1.46-12.14C156.84,43.64,163.26,39.73,169.82,39.73 M169.82,36.57
									c-7.71,0-15.25,4.59-18.77,11.45c-2.23,4.35-2.78,9.49-1.73,14.25c1.2,5.48,4.87,9.01,7.67,13.65
									c1.09,2.05,1.84,4.2,2.55,6.53c0.15,0.48,0.81,2.04,0.91,2.4c0.73,2.57,5.2,3.24,9,3.3c0.03,0,0.19,0,0.35,0s0.31,0,0.35,0
									c3.8-0.05,8.27-0.72,9-3.3c0.1-0.36,0.76-1.92,0.91-2.4c0.71-2.33,1.46-4.47,2.55-6.53c1.7-3.22,4.05-5.73,5.76-8.74
									c0.74-1.3,1.36-2.7,1.76-4.28c1.2-4.76,0.8-9.95-1.33-14.39c-3.37-7.02-10.92-11.84-18.71-11.94
									C169.98,36.57,169.9,36.57,169.82,36.57L169.82,36.57z"/>
							</g>
							<path class="st18" d="M155.72,57.9c0.22-3.96,1.92-7.82,4.95-10.53c2.76-2.47,6.36-3.84,10.14-3.84"/>
							<path class="st19" d="M167.73,83.65l-0.94-4.74c-0.42-2.12-1.13-4.17-2.1-6.1L163.28,70c-0.48-0.95-0.69-2.03-0.5-3.08
								c0.18-1.01,0.69-2.01,1.98-2.01c2.58,0,2.97,2.36,2.97,2.36h4.12c0,0,0.39-2.36,2.97-2.36c1.29,0,1.79,1.01,1.98,2.01
								c0.19,1.05-0.02,2.13-0.5,3.08l-1.41,2.81c-0.97,1.93-1.68,3.98-2.1,6.1l-0.94,4.74"/>
						</g>
					</g>
				</g>
				<path class="st20" d="M154.78,249.26c0,0,9.37,8.23,23.25,5.43c13.89-2.8,20.14-13.66,20.14-13.66l-1.21-6.39"/>
			</g>
			<use xlink:href="#SVGID_1_"  style="overflow:visible;fill:none;stroke:#FFFFFF;stroke-width:10;stroke-miterlimit:10;"/>
		</g>
		<g>
			<rect x="167.85" y="72.13" class="st9" width="3.88" height="48.61"/>
			<g>
				<line class="st16" x1="169.56" y1="26.3" x2="169.56" y2="0"/>
				<line class="st16" x1="140.14" y1="40.78" x2="119.58" y2="30.26"/>
				<line class="st16" x1="152.61" y1="30.36" x2="138.63" y2="9.32"/>
				<line class="st16" x1="197.94" y1="40.78" x2="218.49" y2="30.26"/>
				<line class="st16" x1="185.86" y1="30.36" x2="199.84" y2="9.32"/>
			</g>
			<g>
				<g>
					<path class="st9" d="M178.46,83.4c2.28,0,3.75,2.33,2.86,4.44c-0.01,0.02-0.01,0.03-0.02,0.05c-0.87,2.07-1.12,4.39-2.17,6.4
						c-2.1,4.02-6.71,6.28-11.16,5.5c-4.25-0.74-7.22-3.91-8.45-7.9c-0.45-1.46-0.9-2.85-1.45-4.19c-0.84-2.05,0.7-4.3,2.92-4.3
						H178.46z"/>
					<g>
						<path class="st21" d="M169.47,86.58c-5.11-0.07-7.23-1.2-7.5-2.15c-0.06-0.2-0.26-0.73-0.48-1.29
							c-0.18-0.46-0.37-0.93-0.44-1.15c-0.67-2.19-1.46-4.53-2.66-6.8c-0.92-1.52-1.86-2.86-2.78-4.15
							c-2.04-2.87-3.97-5.58-4.74-9.1c-0.99-4.49-0.41-9.3,1.59-13.2c3.25-6.34,10.23-10.59,17.36-10.59l0.23,0
							c7.23,0.09,14.18,4.53,17.31,11.05c1.91,3.98,2.36,8.84,1.23,13.33c-0.33,1.29-0.85,2.56-1.6,3.89
							c-0.75,1.32-1.63,2.55-2.57,3.84c-1.1,1.53-2.25,3.12-3.21,4.94c-1.2,2.27-1.99,4.61-2.66,6.8c-0.07,0.22-0.26,0.69-0.44,1.15
							c-0.22,0.55-0.42,1.09-0.48,1.29c-0.27,0.95-2.39,2.08-7.5,2.15l-0.33,0L169.47,86.58z"/>
						<path class="st11" d="M169.82,39.73l0.21,0c6.64,0.09,13.03,4.17,15.91,10.15c1.75,3.65,2.16,8.12,1.12,12.26
							c-0.29,1.17-0.75,2.28-1.44,3.49c-0.71,1.25-1.57,2.44-2.48,3.7c-1.14,1.58-2.31,3.2-3.33,5.12
							c-1.27,2.39-2.08,4.82-2.78,7.07c-0.05,0.16-0.27,0.71-0.4,1.04c-0.25,0.64-0.4,1.02-0.5,1.32c-0.36,0.32-2.05,1.07-6.03,1.12
							l-0.31,0l-0.3,0c-3.99-0.05-5.68-0.81-6.04-1.12c-0.09-0.3-0.24-0.68-0.5-1.32c-0.13-0.33-0.35-0.88-0.4-1.03
							c-0.69-2.26-1.51-4.69-2.78-7.08l-0.04-0.08l-0.05-0.08c-0.9-1.5-1.87-2.86-2.8-4.17c-2.03-2.86-3.78-5.32-4.49-8.53
							c-0.91-4.14-0.38-8.56,1.46-12.14C156.84,43.64,163.26,39.73,169.82,39.73 M169.82,36.57c-7.71,0-15.25,4.59-18.77,11.45
							c-2.23,4.35-2.78,9.49-1.73,14.25c1.2,5.48,4.87,9.01,7.67,13.65c1.09,2.05,1.84,4.2,2.55,6.53c0.15,0.48,0.81,2.04,0.91,2.4
							c0.73,2.57,5.2,3.24,9,3.3c0.03,0,0.19,0,0.35,0s0.31,0,0.35,0c3.8-0.05,8.27-0.72,9-3.3c0.1-0.36,0.76-1.92,0.91-2.4
							c0.71-2.33,1.46-4.47,2.55-6.53c1.7-3.22,4.05-5.73,5.76-8.74c0.74-1.3,1.36-2.7,1.76-4.28c1.2-4.76,0.8-9.95-1.33-14.39
							c-3.37-7.02-10.92-11.84-18.71-11.94C169.98,36.57,169.9,36.57,169.82,36.57L169.82,36.57z"/>
					</g>
					<path class="st18" d="M155.72,57.9c0.22-3.96,1.92-7.82,4.95-10.53c2.76-2.47,6.36-3.84,10.14-3.84"/>
					<path class="st19" d="M167.73,83.65l-0.94-4.74c-0.42-2.12-1.13-4.17-2.1-6.1L163.28,70c-0.48-0.95-0.69-2.03-0.5-3.08
						c0.18-1.01,0.69-2.01,1.98-2.01c2.58,0,2.97,2.36,2.97,2.36h4.12c0,0,0.39-2.36,2.97-2.36c1.29,0,1.79,1.01,1.98,2.01
						c0.19,1.05-0.02,2.13-0.5,3.08l-1.41,2.81c-0.97,1.93-1.68,3.98-2.1,6.1l-0.94,4.74"/>
				</g>
			</g>
		</g>
		<g>
			<path class="st3" d="M358.14,257.19L358.14,257.19c1.79,3.04,0.77,6.95-2.26,8.74l-116.5,68c-3.04,1.79-6.95,0.77-8.74-2.26l0,0
				c-1.79-3.04-0.77-6.95,2.26-8.74l116.5-68C352.44,253.14,356.35,254.15,358.14,257.19z"/>
			<g>
				<path class="st4" d="M320.9,145.76c-0.59-1.08-1.17-2.16-1.77-3.22c-0.57-1.01-1.85-1.38-2.87-0.83l-45.07,24.35
					c-1.02,0.55-1.42,1.82-0.88,2.85c0.56,1.08,1.14,2.16,1.72,3.24c22.42,41.5,66.69,97.32,80.19,90.03
					C365.72,254.9,343.32,187.26,320.9,145.76z"/>
				<path class="st5" d="M279.39,170.09c10.2,18.6,25.03,40.39,38.99,57.26c7.85,9.49,14.15,15.92,18.99,20.21"/>
				<g>
					<path class="st6" d="M256.08,124.93l0.66-0.36c1.94-1.05,4.37-0.33,5.42,1.61l16.03,28.73c1.05,1.94,0.33,4.37-1.61,5.42
						l-0.66,0.36c-1.94,1.05-4.37,0.33-5.42-1.61l-16.03-28.73C253.42,128.41,254.14,125.99,256.08,124.93z"/>
					<path class="st6" d="M286.07,126.91L286.07,126.91c-2.11,1.17-2.88,3.83-1.72,5.94l7.99,14.13c1.17,2.11,3.83,2.88,5.94,1.72
						l0,0c2.11-1.17,2.88-3.83,1.72-5.94l-7.99-14.13C290.85,126.52,288.19,125.75,286.07,126.91z"/>
					<path class="st6" d="M297.12,120.99L297.12,120.99c-2.11,1.17-2.88,3.83-1.72,5.94l7.99,14.13c1.17,2.11,3.83,2.88,5.94,1.72h0
						c2.11-1.17,2.88-3.83,1.72-5.94l-7.99-14.13C301.9,120.59,299.24,119.82,297.12,120.99z"/>
					<path class="st6" d="M275.02,132.84L275.02,132.84c-2.11,1.17-2.88,3.83-1.72,5.94l7.99,14.13c1.17,2.11,3.83,2.88,5.94,1.72
						l0,0c2.11-1.17,2.88-3.83,1.72-5.94l-7.99-14.13C279.8,132.44,277.14,131.67,275.02,132.84z"/>
				</g>
			</g>
			<g>
				
					<ellipse transform="matrix(0.9529 -0.3033 0.3033 0.9529 -62.407 118.8495)" class="st7" cx="351.44" cy="260.35" rx="14.47" ry="11.49"/>
				<path class="st8" d="M361.17,257.25c-1.19-3.74-6.65-5.48-11.93-3.8c-1.72,0.55-3.24,1.4-4.47,2.43"/>
			</g>
		</g>
	</g>
</g>
</svg>
