<?xml version="1.0" encoding="utf-8"?>
<!-- Generator: Adobe Illustrator 24.0.1, SVG Export Plug-In . SVG Version: 6.00 Build 0)  -->
<svg version="1.1" xmlns="http://www.w3.org/2000/svg" xmlns:xlink="http://www.w3.org/1999/xlink" x="0px" y="0px"
	 viewBox="0 0 360.21 385.33" style="enable-background:new 0 0 360.21 385.33;" xml:space="preserve">
<style type="text/css">
	.st0{display:none;}
	.st1{display:inline;fill:#1C75BC;}
	.st2{clip-path:url(#SVGID_2_);}
	.st3{fill:#2B629B;}
	.st4{fill:#084279;}
	.st5{fill:none;stroke:#D6DFEB;stroke-width:4;stroke-linecap:round;stroke-linejoin:round;stroke-miterlimit:10;}
	.st6{fill:#0B528C;}
	.st7{fill:none;stroke:#D6DFEB;stroke-width:8;stroke-linecap:round;stroke-linejoin:round;stroke-miterlimit:10;}
	.st8{fill:#D6DFEB;}
	.st9{fill:none;stroke:#000000;stroke-width:4;stroke-linecap:round;stroke-linejoin:round;stroke-miterlimit:10;}
	.st10{fill:#231F20;}
	.st11{fill:#BE1E2D;}
	.st12{fill:none;stroke:#D6DFEB;stroke-width:2;stroke-linecap:round;stroke-linejoin:round;stroke-miterlimit:10;}
	.st13{fill:#FFFFFF;}
	.st14{fill:none;stroke:#000000;stroke-width:3;stroke-linecap:round;stroke-linejoin:round;stroke-miterlimit:10;}
	.st15{fill:#FFFFFF;stroke:#000000;stroke-width:3;stroke-miterlimit:10;}
	.st16{stroke:#000000;stroke-width:2.1;stroke-miterlimit:10;}
</style>
<g id="bg_color" class="st0">
	<rect class="st1" width="383.1" height="388.89"/>
</g>
<g id="set_of_emotion_face">
	<g>
		<g>
			<g>
				<defs>
					<circle id="SVGID_1_" cx="184.96" cy="210.19" r="170"/>
				</defs>
				<use xlink:href="#SVGID_1_"  style="overflow:visible;fill:#D2E3F2;"/>
				<clipPath id="SVGID_2_">
					<use xlink:href="#SVGID_1_"  style="overflow:visible;"/>
				</clipPath>
				<g class="st2">
					<g>
						<path class="st3" d="M6.75,364.11L6.75,364.11c2.02,2.89,6,3.6,8.89,1.58L126,288.13c2.89-2.02,3.6-6,1.58-8.89l0,0
							c-2.02-2.89-6-3.6-8.89-1.58L8.33,355.22C5.44,357.24,4.73,361.22,6.75,364.11z"/>
						<g>
							
								<ellipse transform="matrix(0.9225 -0.3861 0.3861 0.9225 -125.1832 23.1135)" class="st4" cx="-5.04" cy="323.24" rx="14.47" ry="11.49"/>
							<path class="st5" d="M4.38,319.3c-1.51-3.62-7.11-4.87-12.22-2.73c-1.66,0.7-3.1,1.68-4.24,2.81"/>
						</g>
					</g>
					<g>
						<g>
							<path class="st3" d="M324.66,404.6L324.66,404.6c3.03-1.8,4.03-5.72,2.22-8.75l-70.69-118.89c-1.8-3.03-5.72-4.03-8.75-2.22
								l0,0c-3.03,1.8-4.03,5.72-2.22,8.75l70.69,118.89C317.71,405.4,321.63,406.4,324.66,404.6z"/>
						</g>
						<path class="st6" d="M213.5,232.17l0.52,24.48l-56.16,1.19l-0.52-24.48c8.8,3.11,18.31,4.7,28.19,4.49
							C195.41,237.64,204.84,235.65,213.5,232.17z"/>
						<path class="st4" d="M213.45,229.96l0.27,12.98c-7.15,3.59-15.23,3.56-23.76,3.74c-12.06,0.25-23.33-4.42-32.57-10.77
							l-0.08-3.69c6.97,3.91,14.85,4.22,23.35,4.79C192.63,237.79,203.97,235.8,213.45,229.96z"/>
						<path class="st3" d="M253.51,391.53l8.53-99.44c0-0.04,0.01-0.09,0-0.14c-0.57-25.23-21.47-45.24-46.71-44.71l-59.22,1.25
							c-25.24,0.53-45.27,21.41-44.78,46.64c0,0.05,0,0.09,0.01,0.14l12.73,98.99"/>
						<path class="st6" d="M247.95,379.95l12.65-98.46c0.87,3.36,1.37,6.86,1.46,10.47c0,0.05-0.01,0.1-0.01,0.14l-8.53,99.44"/>
						<path class="st7" d="M137.31,386.04l-0.01-0.36l-11.46-89.13c-0.22-18.85,14.86-34.46,33.74-34.86l53.29-1.13"/>
						<path class="st3" d="M182.18,79.32L182.18,79.32c30.65-0.65,56.02,23.67,56.67,54.32l1.03,48.63
							c0.65,30.65-23.67,56.02-54.32,56.67h0c-30.65,0.65-56.02-23.67-56.67-54.32l-1.03-48.63
							C127.21,105.34,151.53,79.97,182.18,79.32z"/>
						<path class="st6" d="M238.85,133.65l1.03,48.63c0.65,30.66-23.68,56.02-54.32,56.67c-15.33,0.32-29.33-5.6-39.59-15.43
							c-3.67-3.52-6.86-7.54-9.46-11.95c9.39,11.84,23.55,19.82,39.82,20.89c30.6,2.02,57.03-21.13,59.06-51.72l3.22-48.53
							c0.04-0.58,0.07-1.15,0.08-1.72C238.77,131.53,238.82,132.58,238.85,133.65z"/>
						<path class="st7" d="M135.3,135.82c-0.56-26.49,20.54-48.5,47.03-49.06c8.7-0.18,16.92,1.97,24.05,5.88"/>
						<path class="st4" d="M238.71,138.84l-110.49,2.33c-5.52,0.12-10.09-4.26-10.21-9.79l-0.05-2.34
							c-0.12-5.52,4.26-10.09,9.79-10.21l110.49-2.33c5.52-0.12,10.09,4.26,10.21,9.79l0.05,2.34
							C248.61,134.15,244.23,138.72,238.71,138.84z"/>
						<path class="st6" d="M221.2,187.17l-35.2-2.61l-35.05,4.09c-7.37,0.16-13.53-5.75-13.69-13.12l-0.28-13.4
							c-0.16-7.37,5.75-13.53,13.12-13.69l35.2,2.61l35.05-4.09c7.37-0.16,13.53,5.75,13.69,13.12l0.28,13.4
							C234.47,180.85,228.57,187.01,221.2,187.17z"/>
						<path class="st8" d="M218.48,184.56l-35.2-2.61l-35.05,4.09c-7.37,0.16-13.53-5.75-13.69-13.12l-0.28-13.4
							c-0.16-7.37,5.75-13.53,13.12-13.69l35.2,2.61l35.05-4.09c7.37-0.16,13.53,5.75,13.69,13.12l0.28,13.4
							C231.76,178.25,225.85,184.41,218.48,184.56z"/>
						<g>
							<path class="st9" d="M140.69,159.04c1.64-2.13,4.55-5.34,9.05-8c5.29-3.12,10.27-3.98,13.09-4.26"/>
						</g>
					</g>
					<g>
						<rect x="182.99" y="21.28" class="st10" width="3.9" height="58"/>
						<path class="st11" d="M184.94,21.28L184.94,21.28c-5.88,0-10.64-4.76-10.64-10.64v0C174.3,4.76,179.07,0,184.94,0l0,0
							c5.88,0,10.64,4.76,10.64,10.64v0C195.58,16.52,190.82,21.28,184.94,21.28z"/>
						<path class="st12" d="M178.56,10.64c0-3.52,2.86-6.38,6.38-6.38c0.88,0,1.72,0.18,2.48,0.5"/>
					</g>
					<g>
						<g>
							<path class="st13" d="M215.08,355.91c0.01,0,0.02,0,0.03,0c-0.02,0-0.03,0-0.05,0C215.07,355.91,215.07,355.91,215.08,355.91
								z"/>
							<g>
								<path class="st13" d="M219.07,327.12c0,0-0.15,0.55-0.15,0.55l-0.19,0.82c0,0-3.08,13.69-3.57,15.85
									c-0.12-0.57-3.08-14.22-3.08-14.22c-0.13-0.58-0.31-1.34-0.53-2.04l-0.2-0.58c-0.86-2.07-2.86-3.41-5.1-3.41
									c-2.14,0-4.11,1.26-5.01,3.2c-0.16,0.41-0.3,0.86-0.43,1.39c-0.13,0.49-0.23,1-0.33,1.44c0,0-2.61,12.26-3.04,14.28
									c-0.13-0.55-3.83-15.92-3.83-15.92l-0.16-0.65c-0.1-0.4-0.2-0.72-0.3-1.01c-0.71-1.66-2.33-2.73-4.12-2.73
									c-1.3,0-2.55,0.57-3.42,1.56c-0.64,0.73-1.01,1.63-1.08,2.6c0,0-0.01,0.2-0.01,0.2c0,0.27,0.01,0.53,0.04,0.79
									c0.09,0.93,0.32,1.68,0.55,2.39l6,19.54l0.13,0.41l0.31,0.9c0.92,2.12,3.01,3.49,5.31,3.5h0.04c2.4-0.01,4.52-1.45,5.4-3.68
									c0-0.01,0.28-0.98,0.28-0.98l0,0c0-0.01,0.05-0.19,0.05-0.19s3.41-13.6,3.53-14.09c0.12,0.5,3.58,14.27,3.58,14.27
									l0.26,0.91c0.85,2.24,3.03,3.75,5.43,3.76h0.05c2.25-0.01,4.32-1.35,5.26-3.4c0.12-0.33,0.24-0.68,0.37-1.09l0.1-0.33
									l6.01-19.54c0.22-0.72,0.46-1.47,0.55-2.39c0.02-0.27,0.04-0.53,0.04-0.79l-0.01-0.2c-0.07-0.97-0.45-1.87-1.08-2.6
									c-0.87-0.98-2.12-1.55-3.41-1.55C221.39,324.09,219.69,325.31,219.07,327.12z"/>
							</g>
						</g>
						<g>
							<g>
								<path class="st13" d="M198.82,283.39l0,33.68c0,2.59,2.11,4.7,4.7,4.7c2.56,0,4.66-2.08,4.7-4.63c0,0,0-0.07,0-0.07v-13.53
									c0-3.62,2.92-5.86,5.63-5.86c3.97,0,4.56,3.18,4.56,5.07v14.31l0,0.08c0.04,2.55,2.15,4.62,4.69,4.62
									c2.59,0,4.7-2.11,4.7-4.7v-15.94c0-7.13-4.09-11.38-10.93-11.38c-3.46,0-6.45,1.2-8.66,3.47c0-0.59,0-9.83,0-9.83v-0.08
									c-0.05-2.54-2.15-4.62-4.7-4.62C200.93,278.69,198.82,280.8,198.82,283.39z"/>
							</g>
						</g>
						<path class="st13" d="M183.54,350.74c-0.24-0.84-0.55-1.89-0.55-3.94v-13.76c0-5.73-4.89-8.89-13.77-8.89
							c-8.33,0-13.47,3.95-13.47,7.74c0,2.1,1.7,3.81,3.81,3.81c0.91,0,1.75-0.32,2.4-0.86c0.42-0.31,0.8-0.68,1.19-1.06
							c1.26-1.23,2.7-2.63,6.01-2.63c2.27,0,4.7,0.76,4.7,2.9c0,1.87-1.05,2.33-3.12,2.57l-5,0.56c-5.87,0.68-11.87,2.39-11.87,9.9
							c0,5.53,4.95,8.83,9.73,8.83c4.49,0,7.97-1.36,10.87-4.22c0.46,2.73,2.26,4.22,5.18,4.22c2.34,0,4.17-1.59,4.17-3.61
							C183.84,351.74,183.7,351.27,183.54,350.74z M174.33,344.1c0,3.03-2.75,5.95-7.24,5.95c-2.81,0-4.55-1.52-4.55-3.37
							c0-2.47,1.85-3.54,5.28-4.04l2.98-0.45c0.95-0.17,2.64-0.45,3.54-1.29V344.1z"/>
						<g>
							<polygon class="st13" points="169.34,295.38 169.34,295.38 169.34,295.38 							"/>
							<g>
								<path class="st13" d="M173.12,291.21c-0.44,0-0.87,0.06-1.28,0.18c-1.57,0.51-2.63,1.97-2.63,3.62
									c0,1.66,1.05,3.11,2.62,3.62c0.41,0.12,0.85,0.18,1.29,0.18c0,0,9.9,0,10.48,0c-0.4,0.44-14.51,15.78-14.51,15.78
									c-0.81,0.88-1.23,2.01-1.23,3.38l0,0.18c0.08,1.66,1.36,3.5,3.99,3.61l0.26,0.01H193c0.45,0,0.89-0.06,1.3-0.18
									c1.56-0.52,2.61-1.97,2.61-3.62c0-1.65-1.05-3.1-2.61-3.62l0,0c-0.41-0.12-0.85-0.18-1.3-0.18c0,0-11.53,0-12.11,0
									c0.4-0.43,14.24-15.61,14.24-15.61c0.92-0.99,1.45-2.14,1.45-3.16l-0.01-0.4c-0.04-0.69-0.2-1.31-0.48-1.84
									c-0.43-0.84-1.14-1.45-2.05-1.74c-0.44-0.14-0.92-0.21-1.43-0.21H173.12z"/>
							</g>
						</g>
					</g>
				</g>
				<use xlink:href="#SVGID_1_"  style="overflow:visible;fill:none;stroke:#FFFFFF;stroke-width:10;stroke-miterlimit:10;"/>
			</g>
			<g>
				<rect x="182.99" y="21.28" class="st10" width="3.9" height="58"/>
				<path class="st11" d="M184.94,21.28L184.94,21.28c-5.88,0-10.64-4.76-10.64-10.64v0C174.3,4.76,179.07,0,184.94,0l0,0
					c5.88,0,10.64,4.76,10.64,10.64v0C195.58,16.52,190.82,21.28,184.94,21.28z"/>
				<path class="st12" d="M178.56,10.64c0-3.52,2.86-6.38,6.38-6.38c0.88,0,1.72,0.18,2.48,0.5"/>
			</g>
			<path class="st3" d="M110.7,283.45l-85.56,59.8c-2.9,2.01-3.62,5.99-1.61,8.88l0,0c2.01,2.9,5.99,3.62,8.88,1.61l82.49-57.66
				L110.7,283.45z"/>
			<g>
				<g>
					<g>
						<path class="st6" d="M0.03,231.68C0.01,230.45,0,229.22,0,228c0-1.16,0.94-2.11,2.1-2.12l51.22-0.76
							c1.16-0.02,2.13,0.9,2.16,2.06c0.03,1.22,0.06,2.44,0.08,3.67c0.7,47.16-10.69,117.5-26.03,117.72S0.73,278.84,0.03,231.68z"
							/>
						<path class="st7" d="M48.14,232.65c0.18,21.21-2.13,47.47-6.07,69.01c-2.22,12.12-4.57,20.8-6.71,26.9"/>
					</g>
					<g>
						<path class="st11" d="M41.12,185.38L41.12,185.38c2.42,0.02,5.04-1.92,5.06-4.33l1.31-16.49c0.02-2.41-3.29-4.77-5.71-4.79h0
							c-2.41-0.02-5.83,1.92-5.85,4.33l0.44,16.45C36.35,182.96,38.71,185.35,41.12,185.38z"/>
						<g>
							<path class="st11" d="M9.73,205.25L9.73,205.25c0.03,2.41,2.01,4.35,4.43,4.32l28.9-0.35c2.41-0.03,4.35-2.01,4.32-4.43v0
								c-0.03-2.41-2.01-4.35-4.43-4.32l-28.9,0.35C11.63,200.85,9.7,202.83,9.73,205.25z"/>
							<path class="st11" d="M9.6,193.12L9.6,193.12c0.03,2.41,2.01,4.35,4.43,4.32l28.9-0.35c2.41-0.03,4.35-2.01,4.32-4.43l0,0
								c-0.03-2.41-2.01-4.35-4.43-4.32l-28.9,0.35C11.51,188.73,9.57,190.71,9.6,193.12z"/>
							<path class="st11" d="M10.31,217.35L10.31,217.35c0.03,2.41,2.01,4.35,4.43,4.32l28.9-0.35c2.41-0.03,4.35-2.01,4.32-4.43
								l0,0c-0.03-2.41-2.01-4.35-4.43-4.32l-28.9,0.35C12.22,212.96,10.28,214.94,10.31,217.35z"/>
						</g>
					</g>
				</g>
				<g>
					
						<ellipse transform="matrix(0.9225 -0.3861 0.3861 0.9225 -131.6153 38.1945)" class="st4" cx="29.29" cy="346.8" rx="14.47" ry="11.49"/>
					<path class="st5" d="M38.71,342.86c-1.51-3.62-7.11-4.87-12.22-2.73c-1.66,0.7-3.1,1.68-4.24,2.81"/>
				</g>
			</g>
			<path class="st14" d="M153.78,202.24c0,0,10.23,9.87,29.19,9.78c18.96-0.09,29.93-9.55,29.93-9.55l0.02-6.5"/>
			<g>
				<path class="st9" d="M217.79,151.04c-5.29-3.12-10.27-3.98-13.09-4.26"/>
				<path class="st9" d="M226.84,159.04c-1.64-2.13-4.55-5.34-9.05-8"/>
			</g>
		</g>
		<g>
			<circle class="st15" cx="159.01" cy="167.72" r="11.35"/>
			<circle class="st16" cx="161.41" cy="170.72" r="5.68"/>
			<circle class="st15" cx="208.93" cy="167.72" r="11.35"/>
			<circle class="st16" cx="206.53" cy="170.72" r="5.68"/>
		</g>
	</g>
</g>
</svg>
