<?xml version="1.0" encoding="utf-8"?>
<!-- Generator: Adobe Illustrator 24.0.1, SVG Export Plug-In . SVG Version: 6.00 Build 0)  -->
<svg version="1.1" xmlns="http://www.w3.org/2000/svg" xmlns:xlink="http://www.w3.org/1999/xlink" x="0px" y="0px"
	 viewBox="0 0 351.33 351" style="enable-background:new 0 0 351.33 351;" xml:space="preserve">
<style type="text/css">
	.st0{display:none;}
	.st1{display:inline;fill:#1C75BC;}
	.st2{fill:#D2E3F2;stroke:#FFFFFF;stroke-width:10;stroke-miterlimit:10;}
	.st3{fill:#FFFFFF;}
	.st4{fill:#084279;}
	.st5{opacity:0.07;}
	.st6{fill:#2B629B;}
	.st7{fill:#D6DFEB;}
	.st8{fill:#0B528C;}
	.st9{fill:#4F4C4D;}
	.st10{fill:#231F20;}
	.st11{opacity:0.25;fill:#231F20;}
	.st12{fill:#FBFAF6;}
</style>
<g id="bg_color" class="st0">
	<rect x="-9.66" y="-20.44" class="st1" width="383.1" height="388.89"/>
</g>
<g id="set_of_emotion_face">
	<g>
		<circle class="st2" cx="175.51" cy="175.32" r="170"/>
	</g>
	<g>
		<g>
			<g>
				<g>
					<rect x="114.75" y="275.04" class="st3" width="120.54" height="24.09"/>
					<path class="st4" d="M239.3,299.2H126.82c-5.32,0-9.66-3.19-9.66-7.08v-9.52c0-3.89,4.35-7.08,9.66-7.08H239.3v-5.58H121.84
						h-0.68c-5.2,0-9.45,4.69-9.45,10.41v14.01c0,5.73,4.25,10.41,9.45,10.41h0.68H239.3V299.2z"/>
					<g class="st5">
						<rect x="121.28" y="280.84" class="st6" width="113.68" height="1.35"/>
						<rect x="121.28" y="284.74" class="st6" width="113.68" height="1.35"/>
						<rect x="121.28" y="288.64" class="st6" width="113.68" height="1.35"/>
						<rect x="121.28" y="292.54" class="st6" width="113.68" height="1.35"/>
					</g>
				</g>
				<g>
					<g class="st5">
						<line class="st6" x1="249.51" y1="323.48" x2="249.51" y2="324.83"/>
						<line class="st6" x1="105.55" y1="324.83" x2="105.55" y2="323.48"/>
					</g>
				</g>
			</g>
		</g>
		<ellipse class="st6" cx="175.51" cy="184.15" rx="76.05" ry="82.97"/>
		<path class="st4" d="M219.56,116.52c11.33,14.49,18.17,33.27,18.17,53.81c0,45.82-34.05,82.97-76.05,82.97
			c-16.42,0-31.63-5.68-44.06-15.33c13.95,17.84,34.7,29.16,57.89,29.16c42,0,76.05-37.15,76.05-82.97
			C251.56,156.24,238.93,131.55,219.56,116.52z"/>
		<path class="st7" d="M175.51,260.2c-34.31,0-62.22-31.02-62.22-69.14c0-19.06,31.11-28.59,62.22-28.59
			c31.11,0,62.22,9.53,62.22,28.59C237.73,229.19,209.82,260.2,175.51,260.2z"/>
		<path class="st8" d="M236.56,184.91c-6.32,38.86-37.44,68.38-74.88,68.38c-5.75,0-11.35-0.7-16.73-2.02
			c9.03,5.68,19.46,8.93,30.56,8.93c34.31,0,62.22-31.02,62.22-69.14C237.73,188.89,237.32,186.84,236.56,184.91z"/>
		<circle class="st7" cx="199.7" cy="159.95" r="31.11"/>
		<circle class="st7" cx="151.31" cy="159.95" r="31.11"/>
		<polygon class="st9" points="267.69,134.6 261.35,105.63 261.35,70.07 257.9,70.07 257.9,105.63 251.56,134.6 		"/>
		<polygon class="st10" points="267.69,134.6 261.35,105.63 261.35,70.07 260.2,70.07 260.2,105.79 263.66,134.6 		"/>
		<polygon class="st10" points="267.69,70.07 175.51,37.81 83.32,70.07 175.51,102.34 		"/>
		<path class="st9" d="M175.51,121.92c0,0-17.61-18.38-46.67-4.61l4.13-36.67c0.31-2.75,1.84-5.23,4.18-6.73
			C148.94,66.36,159.82,62,175.51,62c15.68,0,26.56,4.35,38.36,11.91c2.33,1.5,3.87,3.97,4.18,6.73l4.13,36.67
			C193.11,103.55,175.51,121.92,175.51,121.92z"/>
		<path class="st10" d="M207.83,112.74c4.4,0.7,9.19,2.13,14.34,4.57c-1.41-12.56-0.66-5.88-4.13-36.67
			c-0.31-2.75-1.84-5.23-4.18-6.73c-3.73-2.39-7.37-4.46-11.1-6.17L207.83,112.74z"/>
		<path class="st4" d="M216.99,203.16c-3.96,0-7.53-1.67-10.05-4.33c1.15,4.48,5.21,7.79,10.05,7.79c4.84,0,8.9-3.31,10.05-7.79
			C224.51,201.5,220.95,203.16,216.99,203.16z"/>
		<path class="st4" d="M189.33,203.16c-3.96,0-7.53-1.67-10.05-4.33c1.15,4.48,5.21,7.79,10.05,7.79c4.84,0,8.9-3.31,10.05-7.79
			C196.86,201.5,193.29,203.16,189.33,203.16z"/>
		<path class="st4" d="M161.68,203.16c-3.96,0-7.53-1.67-10.05-4.33c1.15,4.48,5.21,7.79,10.05,7.79c4.84,0,8.9-3.31,10.05-7.79
			C169.2,201.5,165.64,203.16,161.68,203.16z"/>
		<path class="st4" d="M134.02,203.16c-3.96,0-7.53-1.67-10.05-4.33c1.15,4.48,5.21,7.79,10.05,7.79c4.84,0,8.9-3.31,10.05-7.79
			C141.55,201.5,137.98,203.16,134.02,203.16z"/>
		<path class="st4" d="M203.16,223.9c-3.96,0-7.53-1.67-10.05-4.33c1.15,4.48,5.21,7.79,10.05,7.79c4.84,0,8.9-3.31,10.05-7.79
			C210.69,222.24,207.12,223.9,203.16,223.9z"/>
		<path class="st4" d="M175.51,223.9c-3.96,0-7.53-1.67-10.05-4.33c1.15,4.48,5.21,7.79,10.05,7.79c4.84,0,8.9-3.31,10.05-7.79
			C183.03,222.24,179.46,223.9,175.51,223.9z"/>
		<path class="st4" d="M147.85,223.9c-3.96,0-7.53-1.67-10.05-4.33c1.15,4.48,5.21,7.79,10.05,7.79c4.84,0,8.9-3.31,10.05-7.79
			C155.38,222.24,151.81,223.9,147.85,223.9z"/>
		<path class="st4" d="M189.33,244.64c-3.96,0-7.53-1.67-10.05-4.33c1.15,4.48,5.21,7.79,10.05,7.79c4.84,0,8.9-3.31,10.05-7.79
			C196.86,242.98,193.29,244.64,189.33,244.64z"/>
		<path class="st4" d="M161.68,244.64c-3.96,0-7.53-1.67-10.05-4.33c1.15,4.48,5.21,7.79,10.05,7.79c4.84,0,8.9-3.31,10.05-7.79
			C169.2,242.98,165.64,244.64,161.68,244.64z"/>
		<path class="st6" d="M201.43,267.11c0-2.86-2.32-5.19-5.19-5.19c-2.86,0-5.19,2.32-5.19,5.19s5.19,15.56,5.19,15.56
			S201.43,269.98,201.43,267.11z"/>
		<path class="st4" d="M196.25,282.67c0,0,5.19-12.69,5.19-15.56c0-1.88-1-3.51-2.49-4.42c0.8,1.31,1,2.91,0.46,4.42
			C199.4,269.98,196.25,282.67,196.25,282.67z"/>
		<path class="st6" d="M211.8,267.11c0-2.86-2.32-5.19-5.19-5.19c-2.86,0-5.19,2.32-5.19,5.19s5.19,15.56,5.19,15.56
			S211.8,269.98,211.8,267.11z"/>
		<path class="st4" d="M206.62,282.67c0,0,5.19-12.69,5.19-15.56c0-1.88-1-3.51-2.49-4.42c0.8,1.31,1,2.91,0.46,4.42
			C209.77,269.98,206.62,282.67,206.62,282.67z"/>
		<path class="st6" d="M222.17,267.11c0-2.86-2.32-5.19-5.19-5.19c-2.86,0-5.19,2.32-5.19,5.19s5.19,15.56,5.19,15.56
			S222.17,269.98,222.17,267.11z"/>
		<path class="st4" d="M216.99,282.67c0,0,5.19-12.69,5.19-15.56c0-1.88-1-3.51-2.49-4.42c0.8,1.31,1,2.91,0.46,4.42
			C220.14,269.98,216.99,282.67,216.99,282.67z"/>
		<path class="st6" d="M139.21,267.11c0-2.86-2.32-5.19-5.19-5.19c-2.86,0-5.19,2.32-5.19,5.19s5.19,15.56,5.19,15.56
			S139.21,269.98,139.21,267.11z"/>
		<path class="st4" d="M134.02,282.67c0,0,5.19-12.69,5.19-15.56c0-1.88-1-3.51-2.49-4.42c0.8,1.31,1,2.91,0.46,4.42
			C137.18,269.98,134.02,282.67,134.02,282.67z"/>
		<path class="st6" d="M149.58,267.11c0-2.86-2.32-5.19-5.19-5.19c-2.86,0-5.19,2.32-5.19,5.19s5.19,15.56,5.19,15.56
			S149.58,269.98,149.58,267.11z"/>
		<path class="st4" d="M144.39,282.67c0,0,5.19-12.69,5.19-15.56c0-1.88-1-3.51-2.49-4.42c0.8,1.31,1,2.91,0.46,4.42
			C147.55,269.98,144.39,282.67,144.39,282.67z"/>
		<path class="st6" d="M159.95,267.11c0-2.86-2.32-5.19-5.19-5.19c-2.86,0-5.19,2.32-5.19,5.19s5.19,15.56,5.19,15.56
			S159.95,269.98,159.95,267.11z"/>
		<path class="st4" d="M154.76,282.67c0,0,5.19-12.69,5.19-15.56c0-1.88-1-3.51-2.49-4.42c0.8,1.31,1,2.91,0.46,4.42
			C157.92,269.98,154.76,282.67,154.76,282.67z"/>
		<path class="st6" d="M120.2,194.52c0,11.46-11.21,36.61,0,72.6c-36.43-25.72-41.48-61.14-41.48-72.6s9.29-31.11,20.74-31.11
			S120.2,183.06,120.2,194.52z"/>
		<path class="st4" d="M120.2,194.52c0,11.46-11.21,36.61,0,72.6c-24.78-42.37,7.78-81.06-20.74-103.71
			C110.91,163.41,120.2,183.06,120.2,194.52z"/>
		<path class="st6" d="M230.82,194.52c0,11.46,11.21,36.61,0,72.6c36.43-25.72,41.48-61.14,41.48-72.6s-9.29-31.11-20.74-31.11
			S230.82,183.06,230.82,194.52z"/>
		<path class="st4" d="M230.82,267.11c36.43-25.72,41.48-61.14,41.48-72.6s-9.29-31.11-20.74-31.11
			C281.67,184.61,257.78,250.87,230.82,267.11z"/>
		<g>
			<g>
				<path class="st3" d="M192.6,93.76c0,0-0.09,0.33-0.09,0.33l-0.11,0.49c0,0-1.84,8.2-2.14,9.49c-0.07-0.34-1.84-8.51-1.84-8.51
					c-0.08-0.35-0.18-0.8-0.32-1.22l-0.12-0.35c-0.51-1.24-1.71-2.04-3.05-2.04c-1.28,0-2.46,0.75-3,1.92
					c-0.09,0.24-0.18,0.51-0.26,0.83c-0.08,0.3-0.14,0.6-0.19,0.86c0,0-1.56,7.34-1.82,8.55c-0.08-0.33-2.29-9.53-2.29-9.53
					l-0.1-0.39c-0.06-0.24-0.12-0.43-0.18-0.6c-0.42-0.99-1.39-1.63-2.47-1.64c-0.78,0-1.52,0.34-2.05,0.93
					c-0.38,0.44-0.6,0.98-0.65,1.56c0,0,0,0.12,0,0.12c0,0.16,0.01,0.32,0.02,0.48c0.05,0.56,0.19,1,0.33,1.43l3.59,11.69l0.08,0.25
					l0.18,0.54c0.55,1.27,1.8,2.09,3.18,2.1h0.03c1.44,0,2.71-0.87,3.23-2.21c0,0,0.17-0.59,0.17-0.59l0,0c0,0,0.03-0.11,0.03-0.11
					s2.04-8.14,2.12-8.43c0.07,0.3,2.14,8.54,2.14,8.54l0.15,0.55c0.51,1.34,1.82,2.25,3.25,2.25h0.03
					c1.35-0.01,2.59-0.81,3.15-2.03c0.07-0.2,0.15-0.41,0.22-0.65l0.06-0.2l3.6-11.69c0.13-0.43,0.27-0.88,0.33-1.43
					c0.01-0.16,0.02-0.32,0.02-0.48l0-0.12c-0.04-0.58-0.27-1.12-0.65-1.56c-0.52-0.59-1.27-0.93-2.04-0.93
					C193.99,91.94,192.97,92.68,192.6,93.76z"/>
			</g>
			<g>
				<g>
					<path class="st3" d="M180.48,67.58l0,20.16c0,1.55,1.26,2.81,2.81,2.81c1.53,0,2.79-1.24,2.81-2.77c0,0,0-0.04,0-0.04v-8.1
						c0-2.17,1.75-3.51,3.37-3.51c2.38,0,2.73,1.9,2.73,3.03v8.57l0,0.05c0.02,1.52,1.28,2.77,2.81,2.77c1.55,0,2.81-1.26,2.81-2.81
						V78.2c0-4.27-2.45-6.81-6.54-6.81c-2.07,0-3.86,0.72-5.19,2.08c0-0.35,0-5.88,0-5.88v-0.05c-0.03-1.52-1.29-2.76-2.81-2.76
						C181.74,64.77,180.48,66.03,180.48,67.58z"/>
				</g>
			</g>
			<path class="st3" d="M171.34,107.89c-0.15-0.5-0.33-1.13-0.33-2.36V97.3c0-3.43-2.93-5.32-8.24-5.32c-4.99,0-8.06,2.36-8.06,4.63
				c0,1.26,1.02,2.28,2.28,2.28c0.55,0,1.05-0.19,1.44-0.51c0.25-0.19,0.48-0.41,0.71-0.64c0.76-0.74,1.62-1.57,3.6-1.57
				c1.36,0,2.81,0.46,2.81,1.74c0,1.12-0.63,1.39-1.87,1.54l-2.99,0.34c-3.51,0.41-7.1,1.43-7.1,5.92c0,3.31,2.96,5.29,5.82,5.29
				c2.69,0,4.77-0.81,6.51-2.53c0.27,1.63,1.35,2.53,3.1,2.53c1.4,0,2.5-0.95,2.5-2.16C171.51,108.49,171.43,108.22,171.34,107.89z
				 M165.82,103.92c0,1.81-1.65,3.56-4.34,3.56c-1.68,0-2.72-0.91-2.72-2.02c0-1.48,1.11-2.12,3.16-2.42l1.78-0.27
				c0.57-0.1,1.58-0.27,2.12-0.77V103.92z"/>
			<g>
				<path class="st3" d="M165.1,72.26c-0.26,0-0.52,0.04-0.77,0.11c-0.94,0.31-1.57,1.18-1.57,2.17c0,0.99,0.63,1.86,1.57,2.17
					c0.25,0.07,0.51,0.11,0.77,0.11c0,0,5.93,0,6.27,0c-0.24,0.26-8.69,9.44-8.69,9.44c-0.49,0.52-0.73,1.21-0.73,2.02l0,0.11
					c0.05,0.99,0.82,2.09,2.39,2.16l0.15,0H177c0.27,0,0.53-0.04,0.78-0.11c0.94-0.31,1.56-1.18,1.56-2.16
					c0-0.99-0.63-1.86-1.56-2.16l0,0c-0.25-0.07-0.51-0.11-0.78-0.11c0,0-6.9,0-7.25,0c0.24-0.26,8.52-9.34,8.52-9.34
					c0.55-0.59,0.87-1.28,0.87-1.89l-0.01-0.24c-0.03-0.41-0.12-0.78-0.29-1.1c-0.26-0.5-0.68-0.87-1.23-1.04
					c-0.26-0.09-0.55-0.13-0.86-0.13H165.1z"/>
			</g>
		</g>
		<path class="st4" d="M222.17,117.35c-22.98,0-42.23,16.02-47.17,37.51h1c4.23-9.86,14.02-16.77,25.43-16.77
			c26.73,0,48.4-21.67,48.4-48.4C249.83,104.97,237.45,117.35,222.17,117.35z"/>
		<path class="st8" d="M222.17,115.01c-22.98,0-42.23,16.02-47.17,37.51h1c4.23-9.86,14.02-16.77,25.43-16.77
			c26.73,0,48.4-21.67,48.4-48.4C249.83,102.63,237.45,115.01,222.17,115.01z"/>
		<path class="st4" d="M176,154.86c-4.94-21.48-24.18-37.51-47.17-37.51c-15.27,0-27.66-12.38-27.66-27.66
			c0,26.73,21.67,48.4,48.4,48.4c11.87,0,21.99,7.48,25.92,17.98L176,154.86z"/>
		<path class="st8" d="M176,152.52c-4.94-21.48-24.18-37.51-47.17-37.51c-15.27,0-27.66-12.38-27.66-27.66
			c0,26.73,21.67,48.4,48.4,48.4c11.87,0,21.99,7.48,25.92,17.98L176,152.52z"/>
		<g>
			<path class="st10" d="M175.51,168.52c0,0-6.48,3.91-7.84,11.14c2.26,2.11,7.84,12.79,7.84,12.79s5.57-10.68,7.83-12.79
				C181.99,172.43,175.51,168.52,175.51,168.52z"/>
			<path class="st11" d="M175.51,192.45c0.02-0.03,5.57-10.68,7.83-12.78c-1.35-7.22-7.81-11.13-7.83-11.14V192.45z"/>
		</g>
		<g>
			<g>
				<path class="st12" d="M219.76,156.11c0,11.33-9.19,20.52-20.51,20.52c-11.33,0-20.52-9.19-20.52-20.52
					c0-11.33,9.19-20.52,20.52-20.52C210.57,135.59,219.76,144.78,219.76,156.11z"/>
				<path class="st12" d="M172.28,156.11c0,11.33-9.19,20.52-20.52,20.52c-11.32,0-20.51-9.19-20.51-20.52
					c0-11.33,9.19-20.52,20.51-20.52C163.1,135.59,172.28,144.78,172.28,156.11z"/>
			</g>
			<g>
				<path class="st10" d="M139.96,156.9c0,5.95,4.76,10.78,10.63,10.78c5.87,0,10.64-4.83,10.64-10.78
					c0-5.95-4.76-10.78-10.64-10.78C144.72,146.12,139.96,150.95,139.96,156.9z"/>
			</g>
			<path class="st10" d="M211.05,157.06c0,5.95-4.76,10.78-10.63,10.78c-5.87,0-10.64-4.83-10.64-10.78
				c0-5.95,4.76-10.78,10.64-10.78C206.29,146.28,211.05,151.11,211.05,157.06z"/>
			<g>
				<path class="st10" d="M151.77,178.21c-12.19,0-22.1-9.91-22.1-22.1c0-12.19,9.91-22.1,22.1-22.1c12.19,0,22.1,9.91,22.1,22.1
					C173.87,168.29,163.96,178.21,151.77,178.21z M151.77,138.27c-9.83,0-17.83,8-17.83,17.83c0,9.83,8,17.83,17.83,17.83
					c9.83,0,17.83-8,17.83-17.83C169.6,146.27,161.6,138.27,151.77,138.27z"/>
				<path class="st10" d="M199.24,178.37c-12.18,0-22.1-9.91-22.1-22.1c0-12.19,9.91-22.1,22.1-22.1c12.19,0,22.1,9.91,22.1,22.1
					C221.34,168.46,211.43,178.37,199.24,178.37z M199.24,138.44c-9.83,0-17.83,8-17.83,17.83c0,9.83,8,17.83,17.83,17.83
					c9.83,0,17.83-8,17.83-17.83C217.07,146.44,209.07,138.44,199.24,138.44z"/>
			</g>
			<path class="st10" d="M178.62,159.71c-2.02-0.69-4.21-0.69-6.22,0c-0.52-1.51-1.03-3.02-1.55-4.53c3.02-1.04,6.3-1.04,9.33,0
				C179.65,156.69,179.13,158.2,178.62,159.71z"/>
		</g>
	</g>
</g>
</svg>
