<?xml version="1.0" encoding="utf-8"?>
<!-- Generator: Adobe Illustrator 24.0.1, SVG Export Plug-In . SVG Version: 6.00 Build 0)  -->
<svg version="1.1" xmlns="http://www.w3.org/2000/svg" xmlns:xlink="http://www.w3.org/1999/xlink" x="0px" y="0px"
	 viewBox="0 0 379.99 385.33" style="enable-background:new 0 0 379.99 385.33;" xml:space="preserve">
<style type="text/css">
	.st0{display:none;}
	.st1{display:inline;fill:#1C75BC;}
	.st2{clip-path:url(#SVGID_2_);}
	.st3{fill:#2B629B;}
	.st4{fill:#0B528C;}
	.st5{fill:none;stroke:#D6DFEB;stroke-width:8;stroke-linecap:round;stroke-linejoin:round;stroke-miterlimit:10;}
	.st6{fill:#BE1E2D;}
	.st7{fill:#084279;}
	.st8{fill:none;stroke:#D6DFEB;stroke-width:4;stroke-linecap:round;stroke-linejoin:round;stroke-miterlimit:10;}
	.st9{fill:#D6DFEB;}
	.st10{fill:#FFFFFF;stroke:#000000;stroke-width:3;stroke-miterlimit:10;}
	.st11{stroke:#000000;stroke-width:3.5327;stroke-miterlimit:10;}
	.st12{fill:none;stroke:#000000;stroke-width:4;stroke-linecap:round;stroke-linejoin:round;stroke-miterlimit:10;}
	.st13{fill:none;stroke:#000000;stroke-width:3;stroke-miterlimit:10;}
	.st14{fill:#231F20;}
	.st15{fill:none;stroke:#D6DFEB;stroke-width:2;stroke-linecap:round;stroke-linejoin:round;stroke-miterlimit:10;}
	.st16{fill:#FFFFFF;}
	.st17{fill:none;stroke:#000000;stroke-width:3;stroke-linecap:round;stroke-linejoin:round;stroke-miterlimit:10;}
</style>
<g id="bg_color" class="st0">
	<rect class="st1" width="383.1" height="388.89"/>
</g>
<g id="set_of_emotion_face">
	<g>
		<g>
			<defs>
				<circle id="SVGID_1_" cx="204.39" cy="210.77" r="170"/>
			</defs>
			<use xlink:href="#SVGID_1_"  style="overflow:visible;fill:#D2E3F2;"/>
			<clipPath id="SVGID_2_">
				<use xlink:href="#SVGID_1_"  style="overflow:visible;"/>
			</clipPath>
			<g class="st2">
				<g>
					<path class="st3" d="M6.8,322.79L6.8,322.79c0.99,3.38,4.54,5.32,7.92,4.33l129.32-38.38c3.38-0.99,5.32-4.54,4.33-7.92l0,0
						c-0.99-3.38-4.54-5.32-7.92-4.33L11.13,314.87C7.75,315.86,5.81,319.4,6.8,322.79z"/>
					<g>
						<g>
							<path class="st4" d="M36.75,207.08c0.5-1.13,1-2.24,1.51-3.35c0.49-1.06,1.73-1.52,2.79-1.05l46.84,20.74
								c1.06,0.47,1.56,1.71,1.1,2.77c-0.48,1.12-0.97,2.24-1.46,3.37c-19.1,43.13-58.87,102.25-72.9,96.03
								S17.65,250.21,36.75,207.08z"/>
							<path class="st5" d="M80.04,228.09c-8.71,19.34-21.79,42.23-34.39,60.13c-7.09,10.08-12.86,16.98-17.35,21.63"/>
						</g>
						<g>
							<g>
								<path class="st6" d="M56.62,187.13L56.62,187.13c-0.98,2.21,0.01,4.79,2.21,5.78l26.4,11.77c2.21,0.98,4.79-0.01,5.78-2.21
									h0c0.98-2.21-0.01-4.79-2.21-5.78l-26.4-11.77C60.19,183.94,57.6,184.93,56.62,187.13z"/>
								<path class="st6" d="M61.58,176.07L61.58,176.07c-0.98,2.21,0.01,4.79,2.21,5.78l26.4,11.77c2.21,0.98,4.79-0.01,5.78-2.21
									h0c0.98-2.21-0.01-4.79-2.21-5.78l-26.4-11.77C65.15,172.87,62.56,173.86,61.58,176.07z"/>
								<path class="st6" d="M52.08,198.37L52.08,198.37c-0.98,2.21,0.01,4.79,2.21,5.78l26.4,11.77c2.21,0.98,4.79-0.01,5.78-2.21
									v0c0.98-2.21-0.01-4.79-2.21-5.78l-26.4-11.77C55.65,195.17,53.07,196.17,52.08,198.37z"/>
							</g>
						</g>
					</g>
					<g>
						
							<ellipse transform="matrix(0.9225 -0.3861 0.3861 0.9225 -123.8998 30.6616)" class="st7" cx="14.39" cy="323.82" rx="14.47" ry="11.49"/>
						<path class="st8" d="M23.82,319.88c-1.51-3.62-7.11-4.87-12.22-2.73c-1.66,0.7-3.1,1.68-4.24,2.81"/>
					</g>
				</g>
				<g>
					<g>
						<path class="st3" d="M344.09,405.18L344.09,405.18c3.03-1.8,4.03-5.72,2.22-8.75l-70.69-118.89c-1.8-3.03-5.72-4.03-8.75-2.22
							l0,0c-3.03,1.8-4.03,5.72-2.22,8.75l70.69,118.89C337.14,405.98,341.06,406.98,344.09,405.18z"/>
					</g>
					<path class="st4" d="M232.93,232.75l0.52,24.48l-56.16,1.19l-0.52-24.48c8.8,3.11,18.31,4.7,28.19,4.49
						S224.27,236.23,232.93,232.75z"/>
					<path class="st7" d="M232.89,230.54l0.27,12.98c-7.15,3.59-15.23,3.56-23.76,3.74c-12.06,0.25-23.33-4.42-32.57-10.77
						l-0.08-3.69c6.97,3.91,14.85,4.22,23.35,4.79C212.07,238.37,223.4,236.38,232.89,230.54z"/>
					<path class="st3" d="M272.95,392.11l8.53-99.44c0-0.04,0.01-0.09,0-0.14c-0.57-25.23-21.47-45.24-46.71-44.71l-59.22,1.25
						c-25.24,0.53-45.27,21.41-44.78,46.64c0,0.05,0,0.09,0.01,0.14l12.73,98.99"/>
					<path class="st4" d="M267.39,380.52l12.65-98.46c0.87,3.36,1.37,6.86,1.46,10.47c0,0.05-0.01,0.1-0.01,0.14l-8.53,99.44"/>
					<path class="st5" d="M156.74,386.62l-0.01-0.36l-11.46-89.13c-0.22-18.85,14.86-34.46,33.74-34.86l53.29-1.13"/>
					<path class="st3" d="M201.62,79.9L201.62,79.9c30.65-0.65,56.02,23.67,56.67,54.32l1.03,48.63
						c0.65,30.65-23.67,56.02-54.32,56.67h0c-30.65,0.65-56.02-23.67-56.67-54.32l-1.03-48.63
						C146.64,105.92,170.97,80.55,201.62,79.9z"/>
					<path class="st4" d="M258.28,134.23l1.03,48.63c0.65,30.66-23.68,56.02-54.32,56.67c-15.33,0.32-29.33-5.6-39.59-15.43
						c-3.67-3.52-6.86-7.54-9.46-11.95c9.39,11.84,23.55,19.82,39.82,20.89c30.6,2.02,57.03-21.13,59.06-51.72l3.22-48.53
						c0.04-0.58,0.07-1.15,0.08-1.72C258.2,132.11,258.26,133.16,258.28,134.23z"/>
					<path class="st5" d="M154.74,136.4c-0.56-26.49,20.54-48.5,47.03-49.06c8.7-0.18,16.92,1.97,24.05,5.88"/>
					<path class="st7" d="M258.14,139.42l-110.49,2.33c-5.52,0.12-10.09-4.26-10.21-9.79l-0.05-2.34
						c-0.12-5.52,4.26-10.09,9.79-10.21l110.49-2.33c5.52-0.12,10.09,4.26,10.21,9.79l0.05,2.34
						C268.05,134.73,263.66,139.3,258.14,139.42z"/>
					<path class="st4" d="M240.63,187.75l-35.2-2.61l-35.05,4.09c-7.37,0.16-13.53-5.75-13.69-13.12l-0.28-13.4
						c-0.16-7.37,5.75-13.53,13.12-13.69l35.2,2.61l35.05-4.09c7.37-0.16,13.53,5.75,13.69,13.12l0.28,13.4
						C253.91,181.43,248,187.59,240.63,187.75z"/>
					<path class="st9" d="M237.92,185.14l-35.2-2.61l-35.05,4.09c-7.37,0.16-13.53-5.75-13.69-13.12l-0.28-13.4
						c-0.16-7.37,5.75-13.53,13.12-13.69l35.2,2.61l35.05-4.09c7.37-0.16,13.53,5.75,13.69,13.12l0.28,13.4
						C251.19,178.83,245.29,184.99,237.92,185.14z"/>
					<g>
						
							<ellipse transform="matrix(0.9949 -0.1006 0.1006 0.9949 -15.9939 18.7568)" class="st10" cx="177.93" cy="167.92" rx="11.41" ry="8.9"/>
						<path class="st11" d="M187.02,167.21c0.25,2.45-2.09,4.69-5.23,5c-3.14,0.32-5.88-1.41-6.13-3.85c-0.25-2.45,2.09-4.69,5.23-5
							C184.03,163.04,186.78,164.77,187.02,167.21z"/>
						<path class="st12" d="M160.13,159.61c1.64-2.13,4.55-5.34,9.05-8c5.29-3.12,10.27-3.98,13.09-4.26"/>
						<path class="st12" d="M214.18,156.3c2.6-0.68,6.87-1.44,12.05-0.77c6.09,0.78,10.56,3.15,12.96,4.66"/>
						<path class="st13" d="M238.06,169.96c-1.88-1.34-5.82-3.77-11.42-4.53c-5.99-0.82-10.71,0.7-12.87,1.55l9.28-4.92"/>
					</g>
				</g>
				<g>
					<rect x="202.43" y="21.86" class="st14" width="3.9" height="58"/>
					<path class="st6" d="M204.38,21.86L204.38,21.86c-5.88,0-10.64-4.76-10.64-10.64v0c0-5.88,4.76-10.64,10.64-10.64l0,0
						c5.88,0,10.64,4.76,10.64,10.64v0C215.02,17.09,210.26,21.86,204.38,21.86z"/>
					<path class="st15" d="M198,11.22c0-3.52,2.86-6.38,6.38-6.38c0.88,0,1.72,0.18,2.48,0.5"/>
				</g>
				<g>
					<g>
						<path class="st16" d="M234.52,356.49c0.01,0,0.02,0,0.03,0c-0.02,0-0.03,0-0.05,0C234.5,356.49,234.51,356.49,234.52,356.49z"
							/>
						<g>
							<path class="st16" d="M238.5,327.7c0,0-0.15,0.55-0.15,0.55l-0.19,0.82c0,0-3.08,13.69-3.57,15.85
								c-0.12-0.57-3.08-14.22-3.08-14.22c-0.13-0.58-0.31-1.34-0.53-2.04l-0.2-0.58c-0.86-2.07-2.86-3.41-5.1-3.41
								c-2.14,0-4.11,1.26-5.01,3.2c-0.16,0.41-0.3,0.86-0.43,1.39c-0.13,0.49-0.23,1-0.33,1.44c0,0-2.61,12.26-3.04,14.28
								c-0.13-0.55-3.83-15.92-3.83-15.92l-0.16-0.65c-0.1-0.4-0.2-0.72-0.3-1.01c-0.71-1.66-2.33-2.73-4.12-2.73
								c-1.3,0-2.55,0.57-3.42,1.56c-0.64,0.73-1.01,1.63-1.08,2.6c0,0-0.01,0.2-0.01,0.2c0,0.27,0.01,0.53,0.04,0.79
								c0.09,0.93,0.32,1.68,0.55,2.39l6,19.54l0.13,0.41l0.31,0.9c0.92,2.12,3.01,3.49,5.31,3.5h0.04c2.4-0.01,4.52-1.45,5.4-3.68
								c0-0.01,0.28-0.98,0.28-0.98l0,0c0-0.01,0.05-0.19,0.05-0.19s3.41-13.6,3.53-14.09c0.12,0.5,3.58,14.27,3.58,14.27l0.26,0.91
								c0.85,2.24,3.03,3.75,5.43,3.76h0.05c2.25-0.01,4.32-1.35,5.26-3.4c0.12-0.33,0.24-0.68,0.37-1.09l0.1-0.33l6.01-19.54
								c0.22-0.72,0.46-1.47,0.55-2.39c0.02-0.27,0.04-0.53,0.04-0.79l-0.01-0.2c-0.07-0.97-0.45-1.87-1.08-2.6
								c-0.87-0.98-2.12-1.55-3.41-1.55C240.83,324.67,239.13,325.89,238.5,327.7z"/>
						</g>
					</g>
					<g>
						<g>
							<path class="st16" d="M218.26,283.97l0,33.68c0,2.59,2.11,4.7,4.7,4.7c2.56,0,4.66-2.08,4.7-4.63c0,0,0-0.07,0-0.07v-13.53
								c0-3.62,2.92-5.86,5.63-5.86c3.97,0,4.56,3.18,4.56,5.07v14.31l0,0.08c0.04,2.55,2.15,4.62,4.69,4.62
								c2.59,0,4.7-2.11,4.7-4.7v-15.94c0-7.13-4.09-11.38-10.93-11.38c-3.46,0-6.45,1.2-8.66,3.47c0-0.59,0-9.83,0-9.83v-0.08
								c-0.05-2.54-2.15-4.62-4.7-4.62C220.37,279.27,218.26,281.38,218.26,283.97z"/>
						</g>
					</g>
					<path class="st16" d="M202.98,351.32c-0.24-0.84-0.55-1.89-0.55-3.94v-13.76c0-5.73-4.89-8.89-13.77-8.89
						c-8.33,0-13.47,3.95-13.47,7.74c0,2.1,1.7,3.81,3.81,3.81c0.91,0,1.75-0.32,2.4-0.86c0.42-0.31,0.8-0.68,1.19-1.06
						c1.26-1.23,2.7-2.63,6.01-2.63c2.27,0,4.7,0.76,4.7,2.9c0,1.87-1.05,2.33-3.12,2.57l-5,0.56c-5.87,0.68-11.87,2.39-11.87,9.9
						c0,5.53,4.95,8.83,9.73,8.83c4.49,0,7.97-1.36,10.87-4.22c0.46,2.73,2.26,4.22,5.18,4.22c2.34,0,4.17-1.59,4.17-3.61
						C203.27,352.32,203.14,351.85,202.98,351.32z M193.77,344.68c0,3.03-2.75,5.95-7.24,5.95c-2.81,0-4.55-1.52-4.55-3.37
						c0-2.47,1.85-3.54,5.28-4.04l2.98-0.45c0.95-0.17,2.64-0.45,3.54-1.29V344.68z"/>
					<g>
						<polygon class="st16" points="188.78,295.96 188.78,295.96 188.78,295.96 						"/>
						<g>
							<path class="st16" d="M192.56,291.79c-0.44,0-0.87,0.06-1.28,0.18c-1.57,0.51-2.63,1.97-2.63,3.62
								c0,1.66,1.05,3.11,2.62,3.62c0.41,0.12,0.85,0.18,1.29,0.18c0,0,9.9,0,10.48,0c-0.4,0.44-14.51,15.78-14.51,15.78
								c-0.81,0.88-1.23,2.01-1.23,3.38l0,0.18c0.08,1.66,1.36,3.5,3.99,3.61l0.26,0.01h20.88c0.45,0,0.89-0.06,1.3-0.18
								c1.56-0.52,2.61-1.97,2.61-3.62c0-1.65-1.05-3.1-2.61-3.62l0,0c-0.41-0.12-0.85-0.18-1.3-0.18c0,0-11.53,0-12.11,0
								c0.4-0.43,14.24-15.61,14.24-15.61c0.92-0.99,1.45-2.14,1.45-3.16l-0.01-0.4c-0.04-0.69-0.2-1.31-0.48-1.84
								c-0.43-0.84-1.14-1.45-2.05-1.74c-0.44-0.14-0.92-0.21-1.43-0.21H192.56z"/>
						</g>
					</g>
				</g>
			</g>
			<use xlink:href="#SVGID_1_"  style="overflow:visible;fill:none;stroke:#FFFFFF;stroke-width:10;stroke-miterlimit:10;"/>
		</g>
		<g>
			<rect x="202.43" y="21.86" class="st14" width="3.9" height="58"/>
			<path class="st6" d="M204.38,21.86L204.38,21.86c-5.88,0-10.64-4.76-10.64-10.64v0c0-5.88,4.76-10.64,10.64-10.64l0,0
				c5.88,0,10.64,4.76,10.64,10.64v0C215.02,17.09,210.26,21.86,204.38,21.86z"/>
			<path class="st15" d="M198,11.22c0-3.52,2.86-6.38,6.38-6.38c0.88,0,1.72,0.18,2.48,0.5"/>
		</g>
		<path class="st3" d="M111.2,285.17l-100.07,29.7c-3.38,0.99-5.32,4.54-4.33,7.92l0,0c0.99,3.38,4.54,5.32,7.92,4.33l96.48-28.63
			V285.17z"/>
		<g>
			<g>
				<g>
					<path class="st4" d="M36.75,207.08c0.5-1.13,1-2.24,1.51-3.35c0.49-1.06,1.73-1.52,2.79-1.05l46.84,20.74
						c1.06,0.47,1.56,1.71,1.1,2.77c-0.48,1.12-0.97,2.24-1.46,3.37c-19.1,43.13-58.87,102.25-72.9,96.03S17.65,250.21,36.75,207.08
						z"/>
					<path class="st5" d="M80.04,228.09c-8.71,19.34-21.79,42.23-34.39,60.13c-7.09,10.08-12.86,16.98-17.35,21.63"/>
				</g>
				<g>
					<g>
						<path class="st6" d="M56.62,187.13L56.62,187.13c-0.98,2.21,0.01,4.79,2.21,5.78l26.4,11.77c2.21,0.98,4.79-0.01,5.78-2.21h0
							c0.98-2.21-0.01-4.79-2.21-5.78l-26.4-11.77C60.19,183.94,57.6,184.93,56.62,187.13z"/>
						<path class="st6" d="M61.58,176.07L61.58,176.07c-0.98,2.21,0.01,4.79,2.21,5.78l26.4,11.77c2.21,0.98,4.79-0.01,5.78-2.21h0
							c0.98-2.21-0.01-4.79-2.21-5.78l-26.4-11.77C65.15,172.87,62.56,173.86,61.58,176.07z"/>
						<path class="st6" d="M52.08,198.37L52.08,198.37c-0.98,2.21,0.01,4.79,2.21,5.78l26.4,11.77c2.21,0.98,4.79-0.01,5.78-2.21v0
							c0.98-2.21-0.01-4.79-2.21-5.78l-26.4-11.77C55.65,195.17,53.07,196.17,52.08,198.37z"/>
					</g>
				</g>
			</g>
			<g>
				
					<ellipse transform="matrix(0.9225 -0.3861 0.3861 0.9225 -123.8998 30.6616)" class="st7" cx="14.39" cy="323.82" rx="14.47" ry="11.49"/>
				<path class="st8" d="M23.82,319.88c-1.51-3.62-7.11-4.87-12.22-2.73c-1.66,0.7-3.1,1.68-4.24,2.81"/>
			</g>
		</g>
		<path class="st6" d="M94.73,182.91L94.73,182.91c2.18,1.05,5.38,0.41,6.42-1.77l8.2-14.36c1.05-2.18-0.95-5.72-3.13-6.76l0,0
			c-2.18-1.05-6.09-0.75-7.14,1.43l-6.6,15.07C91.44,178.7,92.55,181.86,94.73,182.91z"/>
		<path class="st17" d="M239.04,207.27v-6.15c-8.3,1.95-29.11,4.23-29.11,4.23s-34.55-1.07-46.57-3.7"/>
	</g>
</g>
</svg>
