<svg id="set_of_emotion_face" data-name="set of emotion face" xmlns="http://www.w3.org/2000/svg" xmlns:xlink="http://www.w3.org/1999/xlink" viewBox="0 0 359.77 370.54"><defs><style>.cls-1,.cls-2{fill:#d2e3f2;}.cls-1,.cls-19{stroke:#fff;stroke-width:10px;}.cls-1,.cls-11,.cls-14,.cls-15,.cls-19{stroke-miterlimit:10;}.cls-3{clip-path:url(#clip-path);}.cls-4{fill:#2b629b;}.cls-5{fill:#0b528c;}.cls-6{fill:#084279;}.cls-12,.cls-13,.cls-14,.cls-15,.cls-17,.cls-18,.cls-19,.cls-7,.cls-9{fill:none;}.cls-17,.cls-18,.cls-7{stroke:#d6dfeb;}.cls-12,.cls-13,.cls-17,.cls-18,.cls-7,.cls-9{stroke-linecap:round;stroke-linejoin:round;}.cls-7{stroke-width:8px;}.cls-11,.cls-8{fill:#fff;}.cls-9{stroke:#e1e5e5;}.cls-12,.cls-15,.cls-18,.cls-9{stroke-width:4px;}.cls-10{fill:#d6dfeb;}.cls-11,.cls-12,.cls-13{stroke:#000;}.cls-11,.cls-17{stroke-width:2px;}.cls-13{stroke-width:3px;}.cls-14,.cls-15{stroke:#231f20;}.cls-16{fill:#be1e2d;}</style><clipPath id="clip-path" transform="translate(-2.94 -4.42)"><circle class="cls-1" cx="187.72" cy="179.42" r="170"/></clipPath></defs><title>Avatar_RobyCoder_RZ_worried</title><circle class="cls-2" cx="184.77" cy="175" r="170"/><g class="cls-3"><path class="cls-4" d="M345.09,374.05h0a6.39,6.39,0,0,0,2.23-8.75L276.63,246.41a6.38,6.38,0,0,0-8.75-2.22h0a6.38,6.38,0,0,0-2.22,8.75l70.68,118.89A6.38,6.38,0,0,0,345.09,374.05Z" transform="translate(-2.94 -4.42)"/><path class="cls-5" d="M230.39,198.4l.52,24.47-56.16,1.19-.51-24.48a80.14,80.14,0,0,0,56.15-1.18Z" transform="translate(-2.94 -4.42)"/><path class="cls-6" d="M230.35,196.19l.27,13c-7.15,3.59-15.23,3.56-23.76,3.74-12.06.26-23.33-4.42-32.57-10.77l-.08-3.69c7,3.9,14.85,4.22,23.36,4.78C209.52,204,220.86,202,230.35,196.19Z" transform="translate(-2.94 -4.42)"/><path class="cls-4" d="M269.61,360.55l8.53-99.44a.57.57,0,0,0,0-.13,45.76,45.76,0,0,0-46.71-44.71l-59.21,1.25a45.75,45.75,0,0,0-44.78,46.64.66.66,0,0,0,0,.14l12.73,99" transform="translate(-2.94 -4.42)"/><path class="cls-5" d="M264.85,348.17l12.64-98.47A46.31,46.31,0,0,1,279,260.18c0,.05,0,.09,0,.14l-8.53,99.44" transform="translate(-2.94 -4.42)"/><path class="cls-7" d="M154.2,354.26v-.35l-11.45-89.13a34.52,34.52,0,0,1,33.74-34.86l53.29-1.13" transform="translate(-2.94 -4.42)"/><path class="cls-8" d="M232.18,324.13h0Z" transform="translate(-2.94 -4.42)"/><path class="cls-8" d="M236.17,295.34l-.15.55-.19.83s-3.08,13.69-3.57,15.85c-.12-.57-3.08-14.23-3.08-14.23-.13-.58-.31-1.34-.53-2l-.2-.58a5.52,5.52,0,0,0-10.11-.21,11,11,0,0,0-.43,1.39c-.13.49-.23,1-.33,1.44l-3,14.28-3.83-15.92-.16-.65c-.1-.4-.19-.72-.29-1a4.49,4.49,0,0,0-4.13-2.73,4.57,4.57,0,0,0-3.41,1.55,4.52,4.52,0,0,0-1.09,2.6v.2a6.85,6.85,0,0,0,0,.79,11.51,11.51,0,0,0,.54,2.4l6,19.53.13.42.3.89A5.84,5.84,0,0,0,214,324.2h0a5.8,5.8,0,0,0,5.4-3.69l.28-1h0l.05-.19s3.41-13.59,3.53-14.08c.13.49,3.58,14.26,3.58,14.26l.26.92a5.86,5.86,0,0,0,5.43,3.76h0a5.87,5.87,0,0,0,5.27-3.4c.12-.33.24-.68.37-1.09l.1-.33,6-19.53a11.64,11.64,0,0,0,.55-2.4c0-.26,0-.52,0-.79v-.2a4.43,4.43,0,0,0-1.09-2.6,4.57,4.57,0,0,0-3.41-1.55A4.49,4.49,0,0,0,236.17,295.34Z" transform="translate(-2.94 -4.42)"/><path class="cls-8" d="M215.93,251.61V285.3a4.7,4.7,0,0,0,9.4.06V271.77a5.76,5.76,0,0,1,5.63-5.86c4,0,4.57,3.18,4.57,5.07v14.4a4.7,4.7,0,0,0,9.39-.08V269.35c0-7.12-4.08-11.38-10.93-11.38a11.81,11.81,0,0,0-8.66,3.47v-9.91a4.7,4.7,0,0,0-9.39.08Z" transform="translate(-2.94 -4.42)"/><path class="cls-8" d="M200.65,319a12.19,12.19,0,0,1-.55-3.94V301.26c0-5.73-4.9-8.89-13.78-8.89-8.33,0-13.47,3.95-13.47,7.74a3.82,3.82,0,0,0,3.81,3.81,3.75,3.75,0,0,0,2.4-.86,11.83,11.83,0,0,0,1.2-1.06,7.56,7.56,0,0,1,6-2.63c2.27,0,4.7.76,4.7,2.9,0,1.87-1.06,2.33-3.13,2.57l-5,.56c-5.87.68-11.87,2.39-11.87,9.9,0,5.53,5,8.83,9.73,8.83a14.58,14.58,0,0,0,10.87-4.22c.46,2.72,2.26,4.22,5.19,4.22,2.33,0,4.17-1.59,4.17-3.61A5.58,5.58,0,0,0,200.65,319Zm-9.22-6.64c0,3-2.75,5.95-7.24,5.95-2.81,0-4.55-1.51-4.55-3.37,0-2.47,1.85-3.53,5.28-4l3-.45a7.39,7.39,0,0,0,3.54-1.29Z" transform="translate(-2.94 -4.42)"/><polygon class="cls-8" points="183.5 259.19 183.5 259.19 183.5 259.19 183.5 259.19"/><path class="cls-8" d="M190.23,259.43a4.57,4.57,0,0,0-1.29.18,3.81,3.81,0,0,0,0,7.25,4.57,4.57,0,0,0,1.29.18H200.7l-14.51,15.77A4.83,4.83,0,0,0,185,286.2v.18a3.88,3.88,0,0,0,4,3.61H210.1a4.31,4.31,0,0,0,1.3-.19,3.81,3.81,0,0,0,0-7.23h0a4.7,4.7,0,0,0-1.3-.19H198l14.24-15.61a4.84,4.84,0,0,0,1.45-3.15l0-.4a4.62,4.62,0,0,0-.47-1.84,3.47,3.47,0,0,0-2.05-1.74,4.71,4.71,0,0,0-1.43-.22Z" transform="translate(-2.94 -4.42)"/><rect class="cls-4" x="132.96" y="50.85" width="109.76" height="157.86" rx="52.17" transform="translate(-31.04 51.21) rotate(-15.69)"/><path class="cls-5" d="M235,91l13,46.31a54.89,54.89,0,0,1-91.71,53.58,54.88,54.88,0,0,0,87-54l-8.91-47.26c-.1-.56-.22-1.12-.35-1.66C234.35,89,234.66,90,235,91Z" transform="translate(-2.94 -4.42)"/><path class="cls-9" d="M136.36,118.65a47.51,47.51,0,0,1,57.38-58.91" transform="translate(-2.94 -4.42)"/><rect class="cls-6" x="115.99" y="89.08" width="129.04" height="22.09" rx="5" transform="translate(-23.29 48.12) rotate(-15.69)"/><path class="cls-5" d="M231.28,146.58l-34.34,6.2L164.4,165.36a13.29,13.29,0,0,1-16.35-9.17l-3.58-12.76a13.3,13.3,0,0,1,9.17-16.35l34.34-6.2,32.55-12.58a13.28,13.28,0,0,1,16.34,9.17l3.59,12.76A13.3,13.3,0,0,1,231.28,146.58Z" transform="translate(-2.94 -4.42)"/><path class="cls-10" d="M228,144.76,193.7,151l-32.55,12.58a13.29,13.29,0,0,1-16.34-9.17l-3.59-12.77a13.29,13.29,0,0,1,9.18-16.34l34.34-6.2,32.55-12.58a13.28,13.28,0,0,1,16.34,9.17l3.58,12.76A13.29,13.29,0,0,1,228,144.76Z" transform="translate(-2.94 -4.42)"/><path class="cls-11" d="M177.38,140.91A12.09,12.09,0,1,1,156.05,137a25.94,25.94,0,0,0,6.91-2,26.36,26.36,0,0,0,4.65-2.7A12.07,12.07,0,0,1,177.38,140.91Z" transform="translate(-2.94 -4.42)"/><path class="cls-12" d="M172.83,127.25a26.76,26.76,0,0,1-9.87,7.68,25.94,25.94,0,0,1-6.91,2,26.28,26.28,0,0,1-6.2.2" transform="translate(-2.94 -4.42)"/><path d="M174.17,147.33c1.06,3.78.35,7.29-1.58,7.83s-4.36-2.08-5.43-5.86-.35-7.3,1.58-7.84S173.1,143.54,174.17,147.33Z" transform="translate(-2.94 -4.42)"/><path class="cls-11" d="M202.46,133.87a12.09,12.09,0,1,0,16.16-14.48,26.22,26.22,0,0,1-7,1.87,26.56,26.56,0,0,1-5.38.11A12.1,12.1,0,0,0,202.46,133.87Z" transform="translate(-2.94 -4.42)"/><path class="cls-12" d="M224,116.33a26.54,26.54,0,0,1-5.4,3.06,26.22,26.22,0,0,1-7,1.87,26.76,26.76,0,0,1-12.42-1.43" transform="translate(-2.94 -4.42)"/><path d="M208.55,137.67c1.06,3.79,3.49,6.41,5.43,5.87s2.64-4,1.57-7.83-3.49-6.42-5.42-5.87S207.49,133.89,208.55,137.67Z" transform="translate(-2.94 -4.42)"/><path class="cls-13" d="M174.66,175.51A105.78,105.78,0,0,1,200.94,164,70,70,0,0,1,229.29,163l1.85,6.58" transform="translate(-2.94 -4.42)"/><path class="cls-14" d="M132.78,39.91" transform="translate(-2.94 -4.42)"/><path class="cls-15" d="M166.67,53.74c-5.82-22.35-33-43.58-67.41-30.26" transform="translate(-2.94 -4.42)"/><path class="cls-16" d="M103.34,33.33h0a10.64,10.64,0,0,1-13.91-5.75h0a10.64,10.64,0,0,1,5.76-13.9h0a10.63,10.63,0,0,1,13.9,5.75h0A10.63,10.63,0,0,1,103.34,33.33Z" transform="translate(-2.94 -4.42)"/><path class="cls-17" d="M93.37,26a6.39,6.39,0,0,1,3.45-8.34" transform="translate(-2.94 -4.42)"/><path class="cls-4" d="M8.44,188.34h0a6,6,0,0,0,2.42,8.13l114.38,61.79a6,6,0,0,0,8.13-2.42h0a6,6,0,0,0-2.43-8.13L16.57,185.91A6,6,0,0,0,8.44,188.34Z" transform="translate(-2.94 -4.42)"/><rect class="cls-16" x="120.16" y="131.96" width="8.22" height="22.8" rx="2" transform="translate(225.86 -19.39) rotate(74.35)"/><rect class="cls-16" x="124.6" y="147.79" width="8.22" height="22.8" rx="2" transform="translate(244.34 -12.1) rotate(74.35)"/><rect class="cls-16" x="129.03" y="163.62" width="8.22" height="22.8" rx="2" transform="translate(262.82 -4.81) rotate(74.35)"/><path class="cls-5" d="M112.85,136.82l3.32-.93a2,2,0,0,1,2.44,1.39l13.18,46.31a2,2,0,0,1-1.35,2.47c-1.09.32-2.2.65-3.31,1C84.49,199.15,17.87,206,13.93,192.09S70.21,149,112.85,136.82Z" transform="translate(-2.94 -4.42)"/><path class="cls-7" d="M123.69,180.72A369.64,369.64,0,0,1,59.57,192a172.48,172.48,0,0,1-26,.47" transform="translate(-2.94 -4.42)"/><ellipse class="cls-6" cx="16.18" cy="194.1" rx="11.49" ry="14.47" transform="translate(-142.67 72.94) rotate(-48.41)"/><path class="cls-18" d="M23.82,200.88c2.61-2.94,1.31-8.52-2.83-12.19a13.16,13.16,0,0,0-4.38-2.6" transform="translate(-2.94 -4.42)"/></g><circle class="cls-19" cx="184.77" cy="175" r="170"/><path class="cls-15" d="M166.67,53.74c-5.82-22.35-33-43.58-67.41-30.26" transform="translate(-2.94 -4.42)"/><path class="cls-16" d="M103.34,33.33h0a10.64,10.64,0,0,1-13.91-5.75h0a10.64,10.64,0,0,1,5.76-13.9h0a10.63,10.63,0,0,1,13.9,5.75h0A10.63,10.63,0,0,1,103.34,33.33Z" transform="translate(-2.94 -4.42)"/><path class="cls-17" d="M93.37,26a6.39,6.39,0,0,1,3.45-8.34" transform="translate(-2.94 -4.42)"/><path class="cls-4" d="M8.44,188.34h0a6,6,0,0,0,2.42,8.13l114.38,61.79a6,6,0,0,0,8.13-2.42h0a6,6,0,0,0-2.43-8.13L16.57,185.91A6,6,0,0,0,8.44,188.34Z" transform="translate(-2.94 -4.42)"/><rect class="cls-16" x="120.16" y="131.96" width="8.22" height="22.8" rx="2" transform="translate(225.86 -19.39) rotate(74.35)"/><rect class="cls-16" x="124.6" y="147.79" width="8.22" height="22.8" rx="2" transform="translate(244.34 -12.1) rotate(74.35)"/><rect class="cls-16" x="129.03" y="163.62" width="8.22" height="22.8" rx="2" transform="translate(262.82 -4.81) rotate(74.35)"/><path class="cls-5" d="M112.85,136.82l3.32-.93a2,2,0,0,1,2.44,1.39l13.18,46.31a2,2,0,0,1-1.35,2.47c-1.09.32-2.2.65-3.31,1C84.49,199.15,17.87,206,13.93,192.09S70.21,149,112.85,136.82Z" transform="translate(-2.94 -4.42)"/><path class="cls-7" d="M123.69,180.72A369.64,369.64,0,0,1,59.57,192a172.48,172.48,0,0,1-26,.47" transform="translate(-2.94 -4.42)"/><ellipse class="cls-6" cx="16.18" cy="194.1" rx="11.49" ry="14.47" transform="translate(-142.67 72.94) rotate(-48.41)"/><path class="cls-18" d="M23.82,200.88c2.61-2.94,1.31-8.52-2.83-12.19a13.16,13.16,0,0,0-4.38-2.6" transform="translate(-2.94 -4.42)"/></svg>