<svg id="set_of_emotion_face" data-name="set of emotion face" xmlns="http://www.w3.org/2000/svg" xmlns:xlink="http://www.w3.org/1999/xlink" viewBox="0 0 365.39 448.14"><defs><style>.cls-1,.cls-8{fill:#d2e3f2;}.cls-1,.cls-19,.cls-22{stroke:#fff;}.cls-1,.cls-13,.cls-14,.cls-17,.cls-22{stroke-miterlimit:10;}.cls-1,.cls-22{stroke-width:10px;}.cls-2{fill:#2b629b;}.cls-3{fill:#0b528c;}.cls-15,.cls-17,.cls-19,.cls-20,.cls-21,.cls-22,.cls-4,.cls-7{fill:none;}.cls-4,.cls-7{stroke:#d6dfeb;}.cls-15,.cls-19,.cls-20,.cls-21,.cls-4,.cls-7{stroke-linecap:round;stroke-linejoin:round;}.cls-4{stroke-width:8px;}.cls-5{fill:#be1e2d;}.cls-6{fill:#084279;}.cls-15,.cls-17,.cls-19,.cls-7{stroke-width:4px;}.cls-9{clip-path:url(#clip-path);}.cls-10{fill:#231f20;}.cls-11{fill:#25578e;}.cls-12{fill:#d6dfeb;}.cls-13,.cls-16{fill:#fff;}.cls-13,.cls-14,.cls-15,.cls-21{stroke:#000;}.cls-13{stroke-width:2.1px;}.cls-14{stroke-width:1.57px;}.cls-17,.cls-20{stroke:#231f20;}.cls-18{fill:#ffffb3;}.cls-20{stroke-width:2px;}.cls-21{stroke-width:3px;}.cls-23{fill:#fff042;}</style><clipPath id="clip-path" transform="translate(-3.21 -3.45)"><circle class="cls-1" cx="178.21" cy="255.6" r="170"/></clipPath></defs><title>Avatar_RobyCoder_RZ_idea</title><path class="cls-2" d="M209.66,330,109.6,359.7a6.38,6.38,0,0,0-4.34,7.92h0a6.39,6.39,0,0,0,7.92,4.33l96.48-28.63Z" transform="translate(-3.21 -3.45)"/><path class="cls-3" d="M135.21,251.91c.5-1.13,1-2.24,1.51-3.35a2.14,2.14,0,0,1,2.8-1.05l46.84,20.75a2.13,2.13,0,0,1,1.1,2.77c-.48,1.12-1,2.24-1.47,3.37-19.09,43.13-58.87,102.24-72.89,96S116.11,295,135.21,251.91Z" transform="translate(-3.21 -3.45)"/><path class="cls-4" d="M178.5,272.92a393.88,393.88,0,0,1-34.39,60.14,182.44,182.44,0,0,1-17.35,21.62" transform="translate(-3.21 -3.45)"/><path class="cls-5" d="M192.91,227.51h0a4.37,4.37,0,0,0,5.82-2.09L209.25,204a4.38,4.38,0,0,0-2.09-5.82h0a4.37,4.37,0,0,0-5.82,2.09l-10.52,21.43A4.37,4.37,0,0,0,192.91,227.51Z" transform="translate(-3.21 -3.45)"/><rect class="cls-5" x="167.9" y="220.81" width="8.75" height="37.65" rx="4.37" transform="translate(-119.97 295.89) rotate(-65.96)"/><rect class="cls-5" x="172.86" y="209.74" width="8.75" height="37.65" rx="4.37" transform="translate(-106.93 293.87) rotate(-65.96)"/><rect class="cls-5" x="163.36" y="232.05" width="8.75" height="37.65" rx="4.37" transform="translate(-132.92 298.41) rotate(-65.96)"/><ellipse class="cls-6" cx="112.85" cy="368.65" rx="14.47" ry="11.49" transform="translate(-136.79 68.7) rotate(-22.71)"/><path class="cls-7" d="M122.28,364.71c-1.52-3.62-7.11-4.87-12.22-2.73a13.3,13.3,0,0,0-4.24,2.81" transform="translate(-3.21 -3.45)"/><circle class="cls-8" cx="175" cy="252.15" r="170"/><g class="cls-9"><path class="cls-2" d="M361.08,260.64h0a6.39,6.39,0,0,1-2.26,8.74l-116.51,68a6.39,6.39,0,0,1-8.74-2.26h0a6.39,6.39,0,0,1,2.27-8.74l116.5-68A6.38,6.38,0,0,1,361.08,260.64Z" transform="translate(-3.21 -3.45)"/><path class="cls-3" d="M323.84,149.21c-.59-1.09-1.18-2.16-1.77-3.22a2.13,2.13,0,0,0-2.87-.83l-45.07,24.35a2.12,2.12,0,0,0-.88,2.85c.56,1.08,1.14,2.16,1.72,3.24,22.42,41.5,66.69,97.33,80.19,90S346.25,190.71,323.84,149.21Z" transform="translate(-3.21 -3.45)"/><path class="cls-4" d="M282.33,173.54a392.66,392.66,0,0,0,39,57.26,183.08,183.08,0,0,0,19,20.21" transform="translate(-3.21 -3.45)"/><path class="cls-5" d="M259,128.38l.65-.36a4,4,0,0,1,5.42,1.61l16,28.74a4,4,0,0,1-1.61,5.42l-.65.36a4,4,0,0,1-5.42-1.61l-16-28.74A4,4,0,0,1,259,128.38Z" transform="translate(-3.21 -3.45)"/><path class="cls-5" d="M289,130.36h0a4.37,4.37,0,0,0-1.71,5.94l8,14.13a4.37,4.37,0,0,0,5.94,1.72h0a4.38,4.38,0,0,0,1.72-5.94l-8-14.13A4.37,4.37,0,0,0,289,130.36Z" transform="translate(-3.21 -3.45)"/><path class="cls-5" d="M300.06,124.44h0a4.37,4.37,0,0,0-1.71,5.94l8,14.13a4.37,4.37,0,0,0,5.94,1.71h0a4.37,4.37,0,0,0,1.71-5.94l-8-14.13A4.37,4.37,0,0,0,300.06,124.44Z" transform="translate(-3.21 -3.45)"/><path class="cls-5" d="M278,136.29h0a4.37,4.37,0,0,0-1.71,5.94l8,14.13a4.37,4.37,0,0,0,5.94,1.71h0a4.38,4.38,0,0,0,1.72-5.94l-8-14.12A4.36,4.36,0,0,0,278,136.29Z" transform="translate(-3.21 -3.45)"/><ellipse class="cls-6" cx="354.38" cy="263.8" rx="14.47" ry="11.49" transform="translate(-66.53 116.45) rotate(-17.66)"/><path class="cls-7" d="M364.11,260.7c-1.19-3.74-6.65-5.48-11.93-3.8a13.46,13.46,0,0,0-4.47,2.43" transform="translate(-3.21 -3.45)"/><path class="cls-2" d="M34.69,450.69h0a6.38,6.38,0,0,1-2.22-8.75l70.69-118.89a6.38,6.38,0,0,1,8.75-2.22h0a6.38,6.38,0,0,1,2.22,8.75L43.44,448.47A6.38,6.38,0,0,1,34.69,450.69Z" transform="translate(-3.21 -3.45)"/><path class="cls-3" d="M199.89,275.58l.52,24.48-56.16,1.19-.51-24.48a80.06,80.06,0,0,0,56.15-1.19Z" transform="translate(-3.21 -3.45)"/><path class="cls-6" d="M199.84,273.37l.28,13c-7.15,3.59-15.23,3.56-23.76,3.74-12.06.25-23.33-4.43-32.57-10.78l-.08-3.69c7,3.91,14.85,4.22,23.36,4.79C179,281.2,190.36,279.21,199.84,273.37Z" transform="translate(-3.21 -3.45)"/><path class="cls-2" d="M238.63,437.63l8.54-99.44v-.14a45.74,45.74,0,0,0-46.71-44.7l-59.21,1.25a45.76,45.76,0,0,0-44.78,46.64s0,.09,0,.13l12.73,99" transform="translate(-3.21 -3.45)"/><path class="cls-3" d="M234.34,425.36,247,326.89a46.3,46.3,0,0,1,1.46,10.47c0,.06,0,.1,0,.14l-8.53,99.44" transform="translate(-3.21 -3.45)"/><path class="cls-4" d="M123.7,431.45v-.36L112.23,342A34.53,34.53,0,0,1,146,307.11L199.27,306" transform="translate(-3.21 -3.45)"/><rect class="cls-2" x="113.73" y="121.46" width="109.75" height="157.84" rx="52.17"/><path class="cls-3" d="M227.37,179.11V227.2A54.89,54.89,0,0,1,124.6,254,54.88,54.88,0,0,0,223,225.58l4.19-47.9c.06-.57.1-1.13.12-1.69Q227.37,177.54,227.37,179.11Z" transform="translate(-3.21 -3.45)"/><path class="cls-4" d="M125,179.09a47.49,47.49,0,0,1,71.16-41.19" transform="translate(-3.21 -3.45)"/><rect class="cls-6" x="104.77" y="158.7" width="129.03" height="22.09" rx="5"/><line class="cls-10" x1="171.22" y1="120.77" x2="167.36" y2="120.77"/><path class="cls-11" d="M208.81,231.64l-34.73-3.31-34.73,3.31a13.29,13.29,0,0,1-13.26-13.25V205.13a13.3,13.3,0,0,1,13.26-13.25l34.73,3.31,34.73-3.31a13.3,13.3,0,0,1,13.26,13.25v13.26A13.29,13.29,0,0,1,208.81,231.64Z" transform="translate(-3.21 -3.45)"/><path class="cls-12" d="M206.18,229l-34.73-3.31L136.72,229a13.29,13.29,0,0,1-13.25-13.25V202.51a13.29,13.29,0,0,1,13.25-13.26l34.73,3.32,34.73-3.32a13.3,13.3,0,0,1,13.26,13.26v13.25A13.29,13.29,0,0,1,206.18,229Z" transform="translate(-3.21 -3.45)"/><path class="cls-13" d="M159.8,211.41a12.54,12.54,0,0,1-2.48,7.49,48.69,48.69,0,0,0-11.14.15,49.38,49.38,0,0,0-7.43,1.57,12.54,12.54,0,1,1,21.05-9.21Z" transform="translate(-3.21 -3.45)"/><path class="cls-14" d="M155.39,205.9c0,2.92-1.85,5.3-4.14,5.3s-4.13-2.38-4.13-5.3,1.85-5.3,4.13-5.3S155.39,203,155.39,205.9Z" transform="translate(-3.21 -3.45)"/><path class="cls-15" d="M131.52,199.92a32.79,32.79,0,0,1,23.86-8.68" transform="translate(-3.21 -3.45)"/><path class="cls-13" d="M184.11,211.41a12.54,12.54,0,0,0,2.48,7.49,48.69,48.69,0,0,1,11.14.15,49.38,49.38,0,0,1,7.43,1.57,12.54,12.54,0,1,0-21-9.21Z" transform="translate(-3.21 -3.45)"/><path class="cls-14" d="M196.94,205.9c0,2.92,1.85,5.3,4.13,5.3s4.13-2.38,4.13-5.3-1.85-5.3-4.13-5.3S196.94,203,196.94,205.9Z" transform="translate(-3.21 -3.45)"/><path class="cls-15" d="M212.39,199.92a32.79,32.79,0,0,0-23.86-8.68" transform="translate(-3.21 -3.45)"/><path class="cls-16" d="M201.68,401.32h0Z" transform="translate(-3.21 -3.45)"/><path class="cls-16" d="M205.67,372.53l-.15.55-.19.82s-3.08,13.69-3.57,15.85l-3.08-14.22c-.13-.58-.31-1.34-.53-2l-.2-.59a5.52,5.52,0,0,0-10.11-.2,11,11,0,0,0-.43,1.39c-.13.49-.24,1-.33,1.44l-3,14.28-3.83-15.92-.16-.65c-.1-.41-.2-.73-.29-1a4.51,4.51,0,0,0-4.13-2.74,4.64,4.64,0,0,0-3.42,1.56,4.48,4.48,0,0,0-1.08,2.6v.2a7.09,7.09,0,0,0,0,.79,11,11,0,0,0,.54,2.4l6,19.53.13.42.3.89a5.83,5.83,0,0,0,5.32,3.5h0a5.78,5.78,0,0,0,5.4-3.68l.28-1h0s.05-.19.05-.19,3.41-13.6,3.53-14.09c.12.5,3.58,14.27,3.58,14.27l.26.91a5.83,5.83,0,0,0,5.42,3.76h.05a5.85,5.85,0,0,0,5.27-3.39c.12-.33.24-.69.37-1.09l.1-.33,6-19.53a11.79,11.79,0,0,0,.55-2.4c0-.27,0-.53,0-.79v-.2a4.46,4.46,0,0,0-1.09-2.6,4.58,4.58,0,0,0-3.41-1.56A4.5,4.5,0,0,0,205.67,372.53Z" transform="translate(-3.21 -3.45)"/><path class="cls-16" d="M185.42,328.8v33.68a4.7,4.7,0,0,0,9.4.07V349a5.75,5.75,0,0,1,5.63-5.86c4,0,4.56,3.18,4.56,5.07v14.39a4.7,4.7,0,0,0,9.39-.08V346.54c0-7.12-4.08-11.38-10.93-11.38a11.81,11.81,0,0,0-8.66,3.47v-9.91a4.7,4.7,0,0,0-9.4.08Z" transform="translate(-3.21 -3.45)"/><path class="cls-16" d="M170.14,396.15a12.51,12.51,0,0,1-.55-3.95V378.45c0-5.73-4.89-8.89-13.77-8.89-8.33,0-13.47,3.95-13.47,7.74a3.81,3.81,0,0,0,3.81,3.81,3.75,3.75,0,0,0,2.4-.86,11.83,11.83,0,0,0,1.2-1.06,7.55,7.55,0,0,1,6-2.63c2.28,0,4.7.76,4.7,2.9,0,1.87-1.05,2.33-3.12,2.57l-5,.56c-5.88.68-11.87,2.39-11.87,9.9,0,5.52,4.94,8.83,9.73,8.83a14.55,14.55,0,0,0,10.87-4.23c.46,2.73,2.26,4.23,5.18,4.23,2.34,0,4.18-1.59,4.18-3.61A5.2,5.2,0,0,0,170.14,396.15Zm-9.21-6.64c0,3-2.75,5.95-7.24,5.95-2.81,0-4.55-1.52-4.55-3.37,0-2.47,1.85-3.54,5.28-4l3-.45a7.39,7.39,0,0,0,3.54-1.29Z" transform="translate(-3.21 -3.45)"/><polygon class="cls-16" points="152.73 337.35 152.73 337.35 152.73 337.34 152.73 337.35"/><path class="cls-16" d="M159.72,336.62a4.55,4.55,0,0,0-1.28.18,3.81,3.81,0,0,0,0,7.24,4.55,4.55,0,0,0,1.28.18H170.2L155.69,360a4.8,4.8,0,0,0-1.22,3.38v.19a3.88,3.88,0,0,0,4,3.61H179.6a4.69,4.69,0,0,0,1.3-.18,3.81,3.81,0,0,0,0-7.23h0a4.24,4.24,0,0,0-1.29-.19H167.49L181.73,344a4.84,4.84,0,0,0,1.45-3.15l0-.4a4.62,4.62,0,0,0-.47-1.84,3.46,3.46,0,0,0-2.05-1.74,4.44,4.44,0,0,0-1.44-.22Z" transform="translate(-3.21 -3.45)"/><rect class="cls-10" x="167.58" y="72.13" width="3.88" height="48.61"/><line class="cls-17" x1="169.29" y1="26.3" x2="169.29"/><line class="cls-17" x1="139.86" y1="40.78" x2="119.31" y2="30.26"/><line class="cls-17" x1="152.33" y1="30.36" x2="138.35" y2="9.32"/><line class="cls-17" x1="197.66" y1="40.78" x2="218.22" y2="30.26"/><line class="cls-17" x1="185.59" y1="30.36" x2="199.57" y2="9.32"/><path class="cls-10" d="M181.4,86.85a3.16,3.16,0,0,1,2.86,4.44l0,0c-.87,2.07-1.12,4.39-2.17,6.4a10.66,10.66,0,0,1-11.15,5.5,10.85,10.85,0,0,1-8.45-7.91c-.45-1.46-.9-2.85-1.45-4.18a3.14,3.14,0,0,1,2.92-4.3Z" transform="translate(-3.21 -3.45)"/><path class="cls-18" d="M172.4,90c-5.1-.07-7.23-1.2-7.5-2.15-.05-.2-.26-.73-.48-1.29s-.37-.93-.44-1.15a38.93,38.93,0,0,0-2.66-6.8c-.92-1.53-1.87-2.86-2.78-4.15-2-2.87-4-5.58-4.74-9.1A19.37,19.37,0,0,1,172.75,41.6H173A19.36,19.36,0,0,1,191.52,66a15.47,15.47,0,0,1-1.6,3.89,42.13,42.13,0,0,1-2.57,3.84,43.36,43.36,0,0,0-3.21,4.94,38.32,38.32,0,0,0-2.66,6.8c-.07.22-.26.7-.44,1.15s-.43,1.09-.48,1.29c-.27,1-2.4,2.08-7.5,2.15h-.66Z" transform="translate(-3.21 -3.45)"/><path class="cls-12" d="M172.75,43.17H173a17.8,17.8,0,0,1,17,22.4,13.65,13.65,0,0,1-1.44,3.5,41.2,41.2,0,0,1-2.48,3.7,42.66,42.66,0,0,0-3.32,5.12A39.42,39.42,0,0,0,180,85c-.05.16-.27.71-.4,1-.25.64-.4,1-.5,1.32-.36.31-2,1.06-6,1.12h-.61c-4-.06-5.68-.81-6.05-1.12-.09-.3-.24-.68-.49-1.32-.13-.33-.35-.88-.4-1a39.22,39.22,0,0,0-2.78-7.08l0-.08,0-.07c-.91-1.5-1.87-2.86-2.81-4.17-2-2.86-3.78-5.33-4.48-8.53a17.79,17.79,0,0,1,17.41-21.88m0-3.15a21,21,0,0,0-20.49,25.71c1.2,5.48,4.87,9,7.66,13.65a36,36,0,0,1,2.55,6.53c.15.48.81,2,.91,2.4.73,2.57,5.2,3.24,9,3.29h.7c3.79,0,8.27-.72,9-3.29.11-.36.77-1.92.91-2.4a37.54,37.54,0,0,1,2.55-6.53c1.71-3.22,4.05-5.73,5.76-8.74a17,17,0,0,0,1.76-4.28A20.95,20.95,0,0,0,173,40Z" transform="translate(-3.21 -3.45)"/><path class="cls-19" d="M158.66,61.34A15,15,0,0,1,173.75,47" transform="translate(-3.21 -3.45)"/><path class="cls-20" d="M170.67,87.1l-.94-4.74a24,24,0,0,0-2.09-6.11l-1.42-2.81a4.85,4.85,0,0,1-.49-3.08c.18-1,.68-2,2-2a2.91,2.91,0,0,1,3,2.35h4.12a2.91,2.91,0,0,1,3-2.35c1.29,0,1.79,1,2,2a4.91,4.91,0,0,1-.49,3.08l-1.42,2.81a24,24,0,0,0-2.09,6.11l-.94,4.74" transform="translate(-3.21 -3.45)"/><path class="cls-21" d="M157.72,252.71A28.5,28.5,0,0,0,181,258.13a31.59,31.59,0,0,0,20.14-13.66l-1.21-6.38" transform="translate(-3.21 -3.45)"/></g><circle class="cls-22" cx="175" cy="252.15" r="170"/><rect class="cls-10" x="167.58" y="72.13" width="3.88" height="48.61"/><line class="cls-17" x1="169.29" y1="26.3" x2="169.29"/><line class="cls-17" x1="139.86" y1="40.78" x2="119.31" y2="30.26"/><line class="cls-17" x1="152.33" y1="30.36" x2="138.35" y2="9.32"/><line class="cls-17" x1="197.66" y1="40.78" x2="218.22" y2="30.26"/><line class="cls-17" x1="185.59" y1="30.36" x2="199.57" y2="9.32"/><path class="cls-10" d="M181.4,86.85a3.16,3.16,0,0,1,2.86,4.44l0,0c-.87,2.07-1.12,4.39-2.17,6.4a10.66,10.66,0,0,1-11.15,5.5,10.85,10.85,0,0,1-8.45-7.91c-.45-1.46-.9-2.85-1.45-4.18a3.14,3.14,0,0,1,2.92-4.3Z" transform="translate(-3.21 -3.45)"/><path class="cls-23" d="M172.4,90c-5.1-.07-7.23-1.2-7.5-2.15-.05-.2-.26-.73-.48-1.29s-.37-.93-.44-1.15a38.93,38.93,0,0,0-2.66-6.8c-.92-1.53-1.87-2.86-2.78-4.15-2-2.87-4-5.58-4.74-9.1A19.37,19.37,0,0,1,172.75,41.6H173A19.36,19.36,0,0,1,191.52,66a15.47,15.47,0,0,1-1.6,3.89,42.13,42.13,0,0,1-2.57,3.84,43.36,43.36,0,0,0-3.21,4.94,38.32,38.32,0,0,0-2.66,6.8c-.07.22-.26.7-.44,1.15s-.43,1.09-.48,1.29c-.27,1-2.4,2.08-7.5,2.15h-.66Z" transform="translate(-3.21 -3.45)"/><path class="cls-12" d="M172.75,43.17H173a17.8,17.8,0,0,1,17,22.4,13.65,13.65,0,0,1-1.44,3.5,41.2,41.2,0,0,1-2.48,3.7,42.66,42.66,0,0,0-3.32,5.12A39.42,39.42,0,0,0,180,85c-.05.16-.27.71-.4,1-.25.64-.4,1-.5,1.32-.36.31-2,1.06-6,1.12h-.61c-4-.06-5.68-.81-6.05-1.12-.09-.3-.24-.68-.49-1.32-.13-.33-.35-.88-.4-1a39.22,39.22,0,0,0-2.78-7.08l0-.08,0-.07c-.91-1.5-1.87-2.86-2.81-4.17-2-2.86-3.78-5.33-4.48-8.53a17.79,17.79,0,0,1,17.41-21.88m0-3.15a21,21,0,0,0-20.49,25.71c1.2,5.48,4.87,9,7.66,13.65a36,36,0,0,1,2.55,6.53c.15.48.81,2,.91,2.4.73,2.57,5.2,3.24,9,3.29h.7c3.79,0,8.27-.72,9-3.29.11-.36.77-1.92.91-2.4a37.54,37.54,0,0,1,2.55-6.53c1.71-3.22,4.05-5.73,5.76-8.74a17,17,0,0,0,1.76-4.28A20.95,20.95,0,0,0,173,40Z" transform="translate(-3.21 -3.45)"/><path class="cls-19" d="M158.66,61.34A15,15,0,0,1,173.75,47" transform="translate(-3.21 -3.45)"/><path class="cls-20" d="M170.67,87.1l-.94-4.74a24,24,0,0,0-2.09-6.11l-1.42-2.81a4.85,4.85,0,0,1-.49-3.08c.18-1,.68-2,2-2a2.91,2.91,0,0,1,3,2.35h4.12a2.91,2.91,0,0,1,3-2.35c1.29,0,1.79,1,2,2a4.91,4.91,0,0,1-.49,3.08l-1.42,2.81a24,24,0,0,0-2.09,6.11l-.94,4.74" transform="translate(-3.21 -3.45)"/><path class="cls-2" d="M361.08,260.64h0a6.39,6.39,0,0,1-2.26,8.74l-116.51,68a6.39,6.39,0,0,1-8.74-2.26h0a6.39,6.39,0,0,1,2.27-8.74l116.5-68A6.38,6.38,0,0,1,361.08,260.64Z" transform="translate(-3.21 -3.45)"/><path class="cls-3" d="M323.84,149.21c-.59-1.09-1.18-2.16-1.77-3.22a2.13,2.13,0,0,0-2.87-.83l-45.07,24.35a2.12,2.12,0,0,0-.88,2.85c.56,1.08,1.14,2.16,1.72,3.24,22.42,41.5,66.69,97.33,80.19,90S346.25,190.71,323.84,149.21Z" transform="translate(-3.21 -3.45)"/><path class="cls-4" d="M282.33,173.54a392.66,392.66,0,0,0,39,57.26,183.08,183.08,0,0,0,19,20.21" transform="translate(-3.21 -3.45)"/><path class="cls-5" d="M259,128.38l.65-.36a4,4,0,0,1,5.42,1.61l16,28.74a4,4,0,0,1-1.61,5.42l-.65.36a4,4,0,0,1-5.42-1.61l-16-28.74A4,4,0,0,1,259,128.38Z" transform="translate(-3.21 -3.45)"/><path class="cls-5" d="M289,130.36h0a4.37,4.37,0,0,0-1.71,5.94l8,14.13a4.37,4.37,0,0,0,5.94,1.72h0a4.38,4.38,0,0,0,1.72-5.94l-8-14.13A4.37,4.37,0,0,0,289,130.36Z" transform="translate(-3.21 -3.45)"/><path class="cls-5" d="M300.06,124.44h0a4.37,4.37,0,0,0-1.71,5.94l8,14.13a4.37,4.37,0,0,0,5.94,1.71h0a4.37,4.37,0,0,0,1.71-5.94l-8-14.13A4.37,4.37,0,0,0,300.06,124.44Z" transform="translate(-3.21 -3.45)"/><path class="cls-5" d="M278,136.29h0a4.37,4.37,0,0,0-1.71,5.94l8,14.13a4.37,4.37,0,0,0,5.94,1.71h0a4.38,4.38,0,0,0,1.72-5.94l-8-14.12A4.36,4.36,0,0,0,278,136.29Z" transform="translate(-3.21 -3.45)"/><ellipse class="cls-6" cx="354.38" cy="263.8" rx="14.47" ry="11.49" transform="translate(-66.53 116.45) rotate(-17.66)"/><path class="cls-7" d="M364.11,260.7c-1.19-3.74-6.65-5.48-11.93-3.8a13.46,13.46,0,0,0-4.47,2.43" transform="translate(-3.21 -3.45)"/></svg>