<svg id="set_of_emotion_face" data-name="set of emotion face" xmlns="http://www.w3.org/2000/svg" xmlns:xlink="http://www.w3.org/1999/xlink" viewBox="0 0 379.07 405.49"><defs><style>.cls-1,.cls-2{fill:#d2e3f2;}.cls-1,.cls-19{stroke:#fff;stroke-width:10px;}.cls-1,.cls-11,.cls-12,.cls-14,.cls-19{stroke-miterlimit:10;}.cls-3{clip-path:url(#clip-path);}.cls-4{fill:#2b629b;}.cls-5{fill:#0b528c;}.cls-13,.cls-14,.cls-15,.cls-17,.cls-19,.cls-6,.cls-9{fill:none;}.cls-17,.cls-6,.cls-9{stroke:#d6dfeb;}.cls-13,.cls-15,.cls-17,.cls-6,.cls-9{stroke-linecap:round;stroke-linejoin:round;}.cls-6{stroke-width:8px;}.cls-7{fill:#be1e2d;}.cls-8{fill:#084279;}.cls-13,.cls-9{stroke-width:4px;}.cls-10{fill:#d6dfeb;}.cls-11,.cls-18{fill:#fff;}.cls-11,.cls-12,.cls-13,.cls-14,.cls-15{stroke:#000;}.cls-11{stroke-width:2.1px;}.cls-12{stroke-width:3.53px;}.cls-14,.cls-15{stroke-width:3px;}.cls-16{fill:#231f20;}.cls-17{stroke-width:2px;}</style><clipPath id="clip-path" transform="translate(-2.49 -2)"><circle class="cls-1" cx="206.56" cy="212.19" r="170"/></clipPath></defs><title>Avatar_RobyCoder_RZ_thumb_up</title><circle class="cls-2" cx="204.07" cy="210.19" r="170"/><g class="cls-3"><path class="cls-4" d="M9,324.21H9a6.39,6.39,0,0,0,7.92,4.33l129.32-38.38a6.39,6.39,0,0,0,4.33-7.92h0a6.38,6.38,0,0,0-7.92-4.33L13.3,316.29A6.39,6.39,0,0,0,9,324.21Z" transform="translate(-2.49 -2)"/><path class="cls-5" d="M38.92,208.5c.5-1.13,1-2.24,1.51-3.35a2.13,2.13,0,0,1,2.79-1.05l46.84,20.75a2.12,2.12,0,0,1,1.11,2.77c-.48,1.12-1,2.24-1.47,3.37-19.1,43.13-58.87,102.24-72.9,96S19.82,251.63,38.92,208.5Z" transform="translate(-2.49 -2)"/><path class="cls-6" d="M82.21,229.51a393.88,393.88,0,0,1-34.39,60.14,183.57,183.57,0,0,1-17.35,21.63" transform="translate(-2.49 -2)"/><path class="cls-7" d="M96.61,184.1h0a4.38,4.38,0,0,0,5.83-2.09L113,160.58a4.37,4.37,0,0,0-2.08-5.82h0a4.39,4.39,0,0,0-5.83,2.09L94.53,178.28A4.37,4.37,0,0,0,96.61,184.1Z" transform="translate(-2.49 -2)"/><rect class="cls-7" x="71.61" y="177.4" width="8.75" height="37.65" rx="4.37" transform="matrix(0.41, -0.91, 0.91, 0.41, -136.67, 183.68)"/><rect class="cls-7" x="76.56" y="166.33" width="8.75" height="37.65" rx="4.37" transform="translate(-123.63 181.65) rotate(-65.96)"/><rect class="cls-7" x="67.07" y="188.64" width="8.75" height="37.65" rx="4.37" transform="translate(-149.62 186.19) rotate(-65.96)"/><ellipse class="cls-8" cx="16.56" cy="325.24" rx="14.47" ry="11.49" transform="translate(-126.77 29.61) rotate(-22.71)"/><path class="cls-9" d="M26,321.3c-1.51-3.62-7.1-4.87-12.21-2.73a13.47,13.47,0,0,0-4.24,2.81" transform="translate(-2.49 -2)"/><path class="cls-4" d="M346.26,406.6h0a6.39,6.39,0,0,0,2.23-8.75L277.8,279a6.38,6.38,0,0,0-8.75-2.23h0a6.39,6.39,0,0,0-2.23,8.75l70.69,118.89A6.39,6.39,0,0,0,346.26,406.6Z" transform="translate(-2.49 -2)"/><path class="cls-5" d="M235.1,234.17l.52,24.48-56.15,1.19L179,235.36a80.06,80.06,0,0,0,56.15-1.19Z" transform="translate(-2.49 -2)"/><path class="cls-8" d="M235.06,232l.27,13c-7.15,3.59-15.23,3.56-23.76,3.74-12.06.25-23.32-4.43-32.57-10.78l-.08-3.69c7,3.91,14.85,4.22,23.36,4.79C214.24,239.79,225.57,237.8,235.06,232Z" transform="translate(-2.49 -2)"/><path class="cls-4" d="M275.12,393.53l8.53-99.44a.57.57,0,0,0,0-.13A45.76,45.76,0,0,0,237,249.25l-59.21,1.25A45.76,45.76,0,0,0,133,297.14a.66.66,0,0,0,0,.14l12.72,99" transform="translate(-2.49 -2)"/><path class="cls-5" d="M269.56,382l12.65-98.47A46.88,46.88,0,0,1,283.66,294c0,.05,0,.09,0,.13l-8.53,99.44" transform="translate(-2.49 -2)"/><path class="cls-6" d="M158.91,388v-.36l-11.45-89.12a34.52,34.52,0,0,1,33.74-34.86l53.29-1.13" transform="translate(-2.49 -2)"/><rect class="cls-4" x="149.96" y="81.31" width="111.02" height="159.66" rx="55.51" transform="translate(411.81 315.9) rotate(178.79)"/><path class="cls-5" d="M260.45,135.65l1,48.63a55.53,55.53,0,0,1-103.37,29.29A55.51,55.51,0,0,0,257,182.74l3.22-48.53c0-.58.07-1.16.08-1.72C260.37,133.53,260.43,134.58,260.45,135.65Z" transform="translate(-2.49 -2)"/><path class="cls-6" d="M156.91,137.82A48,48,0,0,1,228,94.63" transform="translate(-2.49 -2)"/><rect class="cls-8" x="139.57" y="119.66" width="130.52" height="22.34" rx="10" transform="translate(-5.21 2.36) rotate(-1.21)"/><path class="cls-5" d="M242.8,189.17l-35.2-2.61-35,4.09a13.45,13.45,0,0,1-13.69-13.12l-.28-13.4a13.45,13.45,0,0,1,13.12-13.69l35.2,2.61L242,149a13.45,13.45,0,0,1,13.69,13.12l.28,13.4A13.45,13.45,0,0,1,242.8,189.17Z" transform="translate(-2.49 -2)"/><path class="cls-10" d="M240.08,186.56,204.89,184l-35.06,4.09a13.44,13.44,0,0,1-13.68-13.12l-.29-13.41A13.44,13.44,0,0,1,169,147.84l35.2,2.61,35.06-4.1a13.44,13.44,0,0,1,13.68,13.12l.28,13.41A13.43,13.43,0,0,1,240.08,186.56Z" transform="translate(-2.49 -2)"/><ellipse class="cls-11" cx="180.1" cy="169.34" rx="11.41" ry="8.9" transform="translate(-18.62 16.98) rotate(-5.78)"/><path class="cls-12" d="M188.19,168.64c.25,2.44-2.09,4.68-5.23,5s-5.88-1.41-6.12-3.86,2.09-4.68,5.23-5S188,166.19,188.19,168.64Z" transform="translate(-2.49 -2)"/><path class="cls-13" d="M162.3,161a31.79,31.79,0,0,1,22.15-12.26" transform="translate(-2.49 -2)"/><path class="cls-13" d="M216.35,157.72a31.86,31.86,0,0,1,25,3.88" transform="translate(-2.49 -2)"/><path class="cls-14" d="M240.23,171.38a25.63,25.63,0,0,0-11.42-4.53,25.9,25.9,0,0,0-12.87,1.54l9.29-4.92" transform="translate(-2.49 -2)"/><path class="cls-15" d="M161.48,189.43c3.27,3.81,15.92,17.6,37,20.33,30.14,3.9,50.6-18.39,52.42-20.44l.15,7.27" transform="translate(-2.49 -2)"/><rect class="cls-16" x="202.11" y="21.28" width="3.9" height="58"/><path class="cls-7" d="M206.55,23.28h0a10.64,10.64,0,0,1-10.64-10.64h0A10.64,10.64,0,0,1,206.55,2h0a10.64,10.64,0,0,1,10.64,10.64h0A10.64,10.64,0,0,1,206.55,23.28Z" transform="translate(-2.49 -2)"/><path class="cls-17" d="M200.17,12.64A6.38,6.38,0,0,1,209,6.76" transform="translate(-2.49 -2)"/><path class="cls-18" d="M236.68,357.91h0Z" transform="translate(-2.49 -2)"/><path class="cls-18" d="M240.67,329.12l-.15.55-.19.82s-3.08,13.69-3.57,15.85l-3.07-14.22c-.13-.58-.31-1.34-.54-2l-.2-.59a5.52,5.52,0,0,0-10.11-.2,11,11,0,0,0-.43,1.39c-.12.49-.23,1-.32,1.44L219,346.4l-3.83-15.92-.16-.65a10.18,10.18,0,0,0-.29-1,4.48,4.48,0,0,0-4.12-2.73,4.58,4.58,0,0,0-3.42,1.55,4.41,4.41,0,0,0-1.08,2.6v.2a7.09,7.09,0,0,0,0,.79,11,11,0,0,0,.55,2.4l6,19.53.13.42.31.89a5.82,5.82,0,0,0,5.31,3.5h0a5.8,5.8,0,0,0,5.41-3.68s.27-1,.27-1h0l.05-.19s3.41-13.6,3.53-14.09c.13.5,3.58,14.27,3.58,14.27l.26.91A5.83,5.83,0,0,0,237,358h.05a5.84,5.84,0,0,0,5.26-3.39c.12-.33.25-.68.37-1.09l.11-.33,6-19.53a11.16,11.16,0,0,0,.55-2.4c0-.27,0-.53,0-.79v-.2a4.45,4.45,0,0,0-1.08-2.6,4.61,4.61,0,0,0-3.42-1.55A4.5,4.5,0,0,0,240.67,329.12Z" transform="translate(-2.49 -2)"/><path class="cls-18" d="M220.43,285.39v33.69a4.7,4.7,0,0,0,9.39.06V305.55a5.76,5.76,0,0,1,5.63-5.86c4,0,4.57,3.18,4.57,5.07v14.39a4.7,4.7,0,0,0,9.4-.07V303.13c0-7.12-4.09-11.38-10.93-11.38a11.82,11.82,0,0,0-8.67,3.47v-9.91a4.7,4.7,0,0,0-9.39.08Z" transform="translate(-2.49 -2)"/><path class="cls-18" d="M205.15,352.74a12.21,12.21,0,0,1-.55-3.95V335c0-5.73-4.89-8.89-13.77-8.89-8.34,0-13.48,4-13.48,7.74a3.81,3.81,0,0,0,6.22,2.95,11.73,11.73,0,0,0,1.19-1.06,7.58,7.58,0,0,1,6-2.63c2.27,0,4.7.76,4.7,2.9,0,1.87-1.06,2.33-3.13,2.57l-5,.56c-5.87.68-11.87,2.39-11.87,9.9,0,5.52,5,8.83,9.73,8.83a14.59,14.59,0,0,0,10.88-4.23c.45,2.73,2.25,4.23,5.18,4.23,2.34,0,4.17-1.59,4.17-3.61A5.19,5.19,0,0,0,205.15,352.74Zm-9.21-6.64c0,3-2.76,5.95-7.25,5.95-2.81,0-4.54-1.52-4.54-3.37,0-2.47,1.85-3.54,5.27-4l3-.45a7.43,7.43,0,0,0,3.54-1.29Z" transform="translate(-2.49 -2)"/><polygon class="cls-18" points="188.46 295.38 188.46 295.38 188.46 295.38 188.46 295.38"/><path class="cls-18" d="M194.73,293.21a4.55,4.55,0,0,0-1.28.18,3.81,3.81,0,0,0,0,7.24,4.62,4.62,0,0,0,1.29.18h10.48l-14.52,15.78a4.82,4.82,0,0,0-1.22,3.38v.19a3.89,3.89,0,0,0,4,3.61H214.6a4.76,4.76,0,0,0,1.31-.18,3.81,3.81,0,0,0,0-7.23h0a4.64,4.64,0,0,0-1.3-.19H202.49l14.24-15.61a4.84,4.84,0,0,0,1.45-3.15V297a4.8,4.8,0,0,0-.48-1.84,3.41,3.41,0,0,0-2.05-1.74,4.42,4.42,0,0,0-1.43-.22Z" transform="translate(-2.49 -2)"/></g><circle class="cls-19" cx="204.07" cy="210.19" r="170"/><rect class="cls-16" x="202.11" y="21.28" width="3.9" height="58"/><path class="cls-7" d="M206.55,23.28h0a10.64,10.64,0,0,1-10.64-10.64h0A10.64,10.64,0,0,1,206.55,2h0a10.64,10.64,0,0,1,10.64,10.64h0A10.64,10.64,0,0,1,206.55,23.28Z" transform="translate(-2.49 -2)"/><path class="cls-17" d="M200.17,12.64A6.38,6.38,0,0,1,209,6.76" transform="translate(-2.49 -2)"/><path class="cls-4" d="M113.37,286.59,13.3,316.29A6.39,6.39,0,0,0,9,324.21H9a6.39,6.39,0,0,0,7.92,4.33l96.48-28.63Z" transform="translate(-2.49 -2)"/><path class="cls-5" d="M38.92,208.5c.5-1.13,1-2.24,1.51-3.35a2.13,2.13,0,0,1,2.79-1.05l46.84,20.75a2.12,2.12,0,0,1,1.11,2.77c-.48,1.12-1,2.24-1.47,3.37-19.1,43.13-58.87,102.24-72.9,96S19.82,251.63,38.92,208.5Z" transform="translate(-2.49 -2)"/><path class="cls-6" d="M82.21,229.51a393.88,393.88,0,0,1-34.39,60.14,183.57,183.57,0,0,1-17.35,21.63" transform="translate(-2.49 -2)"/><path class="cls-7" d="M96.61,184.1h0a4.38,4.38,0,0,0,5.83-2.09L113,160.58a4.37,4.37,0,0,0-2.08-5.82h0a4.39,4.39,0,0,0-5.83,2.09L94.53,178.28A4.37,4.37,0,0,0,96.61,184.1Z" transform="translate(-2.49 -2)"/><rect class="cls-7" x="71.61" y="177.4" width="8.75" height="37.65" rx="4.37" transform="matrix(0.41, -0.91, 0.91, 0.41, -136.67, 183.68)"/><rect class="cls-7" x="76.56" y="166.33" width="8.75" height="37.65" rx="4.37" transform="translate(-123.63 181.65) rotate(-65.96)"/><rect class="cls-7" x="67.07" y="188.64" width="8.75" height="37.65" rx="4.37" transform="translate(-149.62 186.19) rotate(-65.96)"/><ellipse class="cls-8" cx="16.56" cy="325.24" rx="14.47" ry="11.49" transform="translate(-126.77 29.61) rotate(-22.71)"/><path class="cls-9" d="M26,321.3c-1.51-3.62-7.1-4.87-12.21-2.73a13.47,13.47,0,0,0-4.24,2.81" transform="translate(-2.49 -2)"/></svg>