<?xml version="1.0" encoding="utf-8"?>
<!-- Generator: Adobe Illustrator 24.0.1, SVG Export Plug-In . SVG Version: 6.00 Build 0)  -->
<svg version="1.1" xmlns="http://www.w3.org/2000/svg" xmlns:xlink="http://www.w3.org/1999/xlink" x="0px" y="0px"
	 viewBox="0 0 350.44 386.86" style="enable-background:new 0 0 350.44 386.86;" xml:space="preserve">
<style type="text/css">
	.st0{display:none;}
	.st1{display:inline;fill:#1C75BC;}
	.st2{fill:#231F20;}
	.st3{fill:#BE1E2D;}
	.st4{fill:none;stroke:#D6DFEB;stroke-width:2;stroke-linecap:round;stroke-linejoin:round;stroke-miterlimit:10;}
	.st5{clip-path:url(#SVGID_2_);}
	.st6{fill:#2B629B;}
	.st7{fill:#0B528C;}
	.st8{fill:#084279;}
	.st9{fill:none;stroke:#D6DFEB;stroke-width:8;stroke-linecap:round;stroke-linejoin:round;stroke-miterlimit:10;}
	.st10{fill:#282F39;}
	.st11{fill:none;stroke:#E1E5E5;stroke-width:2;stroke-linecap:round;stroke-linejoin:round;stroke-miterlimit:10;}
	.st12{fill:#D6DFEB;}
	.st13{fill:#FFFFFF;stroke:#000000;stroke-width:3;stroke-miterlimit:10;}
	.st14{stroke:#000000;stroke-width:2.1;stroke-miterlimit:10;}
	.st15{fill:#FFFFFF;}
	.st16{fill:none;stroke:#000000;stroke-width:3;stroke-linecap:round;stroke-linejoin:round;stroke-miterlimit:10;}
</style>
<g id="bg_color" class="st0">
	<rect class="st1" width="355.11" height="388.89"/>
</g>
<g id="set_of_emotion_face">
	<g>
		<g>
			<g>
				<g>
					<rect x="173.31" y="22.5" class="st2" width="3.88" height="57.61"/>
					<path class="st3" d="M175.25,22.5L175.25,22.5c-5.85,0-10.58-4.74-10.58-10.58v0c0-5.85,4.74-10.58,10.58-10.58l0,0
						c5.85,0,10.58,4.74,10.58,10.58v0C185.83,17.76,181.09,22.5,175.25,22.5z"/>
					<path class="st4" d="M168.9,11.92c0-3.5,2.85-6.35,6.35-6.35c0.88,0,1.71,0.18,2.47,0.5"/>
				</g>
				<g>
					<defs>
						<circle id="SVGID_1_" cx="175.25" cy="211.53" r="170"/>
					</defs>
					<use xlink:href="#SVGID_1_"  style="overflow:visible;fill:#D2E3F2;"/>
					<clipPath id="SVGID_2_">
						<use xlink:href="#SVGID_1_"  style="overflow:visible;"/>
					</clipPath>
					<g class="st5">
						<g>
							<g>
								<path class="st6" d="M313.08,405.93L313.08,405.93c3.03-1.8,4.03-5.72,2.22-8.75l-70.69-118.89
									c-1.8-3.03-5.72-4.03-8.75-2.22l0,0c-3.03,1.8-4.03,5.72-2.22,8.75l70.69,118.89C306.14,406.74,310.05,407.73,313.08,405.93
									z"/>
							</g>
							<g>
								<path class="st6" d="M37.41,405.93L37.41,405.93c-3.03-1.8-4.03-5.72-2.22-8.75l70.69-118.89c1.8-3.03,5.72-4.03,8.75-2.22
									l0,0c3.03,1.8,4.03,5.72,2.22,8.75L46.16,403.71C44.36,406.74,40.45,407.73,37.41,405.93z"/>
							</g>
							<path class="st7" d="M201.93,231.51l0.52,24.48l-56.16,1.19l-0.52-24.48c8.8,3.11,18.31,4.7,28.19,4.49
								C183.83,236.98,193.26,234.98,201.93,231.51z"/>
							<path class="st8" d="M201.88,229.3l0.27,12.98c-7.15,3.59-15.23,3.56-23.76,3.74c-12.06,0.25-23.33-4.42-32.57-10.77
								l-0.08-3.69c6.97,3.91,14.85,4.22,23.35,4.79C181.06,237.12,192.39,235.14,201.88,229.3z"/>
							<path class="st6" d="M241.94,392.87l8.53-99.44c0-0.04,0.01-0.09,0-0.14c-0.57-25.23-21.47-45.24-46.71-44.71l-59.22,1.25
								c-25.24,0.53-45.27,21.41-44.78,46.64c0,0.05,0,0.09,0.01,0.13l12.73,98.99"/>
							<path class="st7" d="M236.38,381.28l12.65-98.46c0.87,3.36,1.37,6.86,1.46,10.47c0,0.05-0.01,0.1-0.01,0.14l-8.53,99.44"/>
							<path class="st9" d="M125.73,387.38l-0.01-0.36l-11.46-89.13c-0.22-18.85,14.86-34.46,33.74-34.86l53.29-1.13"/>
						</g>
						<g>
							<g>
								<path class="st6" d="M178.3,238.94h-6.09c-28.81,0-52.17-23.36-52.17-52.17v-54.48c0-28.81,23.36-52.17,52.17-52.17h6.09
									c28.81,0,52.17,23.36,52.17,52.17v54.48C230.47,215.58,207.11,238.94,178.3,238.94z"/>
								<path class="st7" d="M230.46,136.35v48.39c0,30.5-24.72,55.22-55.22,55.22c-15.25,0-29.05-6.18-39.04-16.17
									c-3.58-3.58-6.67-7.64-9.16-12.09c9.09,11.97,23.01,20.2,39.16,21.61c30.39,2.66,57.16-19.81,59.82-50.2l4.22-48.2
									c0.05-0.57,0.1-1.14,0.12-1.7C230.43,134.24,230.46,135.29,230.46,136.35z"/>
								<path class="st9" d="M127.44,135.33c0-26.36,21.45-47.81,47.81-47.81c8.66,0,16.78,2.31,23.79,6.35"/>
								<path class="st8" d="M235.16,140.51H115.33c-2.76,0-5-2.24-5-5v-12.23c0-2.76,2.24-5,5-5h119.83c2.76,0,5,2.24,5,5v12.23
									C240.16,138.27,237.93,140.51,235.16,140.51z"/>
								<rect x="173.31" y="7.5" class="st2" width="3.88" height="72.61"/>
								<path class="st10" d="M175.25,7.5L175.25,7.5c-5.85,0-10.58-4.74-10.58-10.58v0c0-5.85,4.74-10.58,10.58-10.58l0,0
									c5.85,0,10.58,4.74,10.58,10.58v0C185.83,2.76,181.09,7.5,175.25,7.5z"/>
								<path class="st11" d="M168.9-3.08c0-3.5,2.85-6.35,6.35-6.35c0.88,0,1.71,0.18,2.47,0.5"/>
								<path class="st7" d="M211.79,188.2l-34.95-3.33l-34.95,3.33c-7.33,0-13.34-6-13.34-13.34v-13.34c0-7.33,6-13.34,13.34-13.34
									l34.95,3.33l34.95-3.33c7.33,0,13.34,6,13.34,13.34v13.34C225.12,182.2,219.12,188.2,211.79,188.2z"/>
								<path class="st12" d="M209.14,185.56l-34.95-3.33l-34.95,3.33c-7.33,0-13.34-6-13.34-13.34v-13.34
									c0-7.33,6-13.34,13.34-13.34l34.95,3.33l34.95-3.33c7.33,0,13.34,6,13.34,13.34v13.34
									C222.47,179.56,216.47,185.56,209.14,185.56z"/>
							</g>
							<g>
								<circle class="st13" cx="147.73" cy="167.85" r="12.62"/>
								<circle class="st14" cx="150.4" cy="171.18" r="6.31"/>
								<circle class="st13" cx="200.65" cy="167.85" r="12.62"/>
								<circle class="st14" cx="197.98" cy="171.18" r="6.31"/>
							</g>
						</g>
					</g>
					<use xlink:href="#SVGID_1_"  style="overflow:visible;fill:none;stroke:#FFFFFF;stroke-width:10;stroke-miterlimit:10;"/>
				</g>
			</g>
			<g>
				<g>
					<path class="st15" d="M203.72,357.24c0.01,0,0.02,0,0.03,0c-0.02,0-0.03,0-0.05,0C203.7,357.24,203.71,357.24,203.72,357.24z"
						/>
					<g>
						<path class="st15" d="M207.7,328.45c0,0-0.15,0.55-0.15,0.55l-0.19,0.82c0,0-3.08,13.69-3.57,15.85
							c-0.12-0.57-3.08-14.22-3.08-14.22c-0.13-0.58-0.31-1.34-0.53-2.04l-0.2-0.58c-0.86-2.07-2.86-3.41-5.1-3.41
							c-2.14,0-4.11,1.26-5.01,3.2c-0.16,0.41-0.3,0.86-0.43,1.39c-0.13,0.49-0.23,1-0.33,1.44c0,0-2.61,12.26-3.04,14.28
							c-0.13-0.55-3.83-15.92-3.83-15.92l-0.16-0.65c-0.1-0.4-0.2-0.72-0.3-1.01c-0.71-1.66-2.33-2.73-4.12-2.73
							c-1.3,0-2.55,0.57-3.42,1.56c-0.64,0.73-1.01,1.63-1.08,2.6c0,0-0.01,0.2-0.01,0.2c0,0.27,0.01,0.53,0.04,0.79
							c0.09,0.93,0.32,1.68,0.55,2.39l6,19.54l0.13,0.41l0.31,0.9c0.92,2.12,3.01,3.49,5.31,3.5h0.04c2.4-0.01,4.52-1.45,5.4-3.68
							c0-0.01,0.28-0.98,0.28-0.98l0,0c0-0.01,0.05-0.19,0.05-0.19s3.41-13.6,3.53-14.09c0.12,0.5,3.58,14.27,3.58,14.27l0.26,0.91
							c0.85,2.24,3.03,3.75,5.43,3.76h0.05c2.25-0.01,4.32-1.35,5.26-3.4c0.12-0.33,0.24-0.68,0.37-1.09l0.1-0.33l6.01-19.54
							c0.22-0.72,0.46-1.47,0.55-2.39c0.02-0.27,0.04-0.53,0.04-0.79l-0.01-0.2c-0.07-0.97-0.45-1.87-1.08-2.6
							c-0.87-0.98-2.12-1.55-3.41-1.55C210.03,325.42,208.33,326.64,207.7,328.45z"/>
					</g>
				</g>
				<g>
					<g>
						<path class="st15" d="M187.46,284.72l0,33.68c0,2.59,2.11,4.7,4.7,4.7c2.56,0,4.66-2.08,4.7-4.63c0,0,0-0.07,0-0.07v-13.53
							c0-3.62,2.92-5.86,5.63-5.86c3.97,0,4.56,3.18,4.56,5.07v14.31l0,0.08c0.04,2.55,2.15,4.62,4.69,4.62c2.59,0,4.7-2.11,4.7-4.7
							v-15.94c0-7.13-4.09-11.38-10.93-11.38c-3.46,0-6.45,1.2-8.66,3.47c0-0.59,0-9.83,0-9.83v-0.08c-0.05-2.54-2.15-4.62-4.7-4.62
							C189.57,280.03,187.46,282.13,187.46,284.72z"/>
					</g>
				</g>
				<path class="st15" d="M172.18,352.07c-0.24-0.84-0.55-1.89-0.55-3.94v-13.76c0-5.73-4.89-8.89-13.77-8.89
					c-8.33,0-13.47,3.95-13.47,7.74c0,2.1,1.7,3.81,3.81,3.81c0.91,0,1.75-0.32,2.4-0.86c0.42-0.31,0.8-0.68,1.19-1.06
					c1.26-1.23,2.7-2.63,6.01-2.63c2.27,0,4.7,0.76,4.7,2.9c0,1.87-1.05,2.33-3.12,2.57l-5,0.56c-5.87,0.68-11.87,2.39-11.87,9.9
					c0,5.53,4.95,8.83,9.73,8.83c4.49,0,7.97-1.36,10.87-4.22c0.46,2.73,2.26,4.22,5.18,4.22c2.34,0,4.17-1.59,4.17-3.61
					C172.47,353.07,172.34,352.61,172.18,352.07z M162.97,345.43c0,3.03-2.75,5.95-7.24,5.95c-2.81,0-4.55-1.52-4.55-3.37
					c0-2.47,1.85-3.54,5.28-4.04l2.98-0.45c0.95-0.17,2.64-0.45,3.54-1.29V345.43z"/>
				<g>
					<polygon class="st15" points="157.98,296.72 157.98,296.72 157.98,296.71 					"/>
					<g>
						<path class="st15" d="M161.76,292.55c-0.44,0-0.87,0.06-1.28,0.18c-1.57,0.51-2.63,1.97-2.63,3.62c0,1.66,1.05,3.11,2.62,3.62
							c0.41,0.12,0.85,0.18,1.29,0.18c0,0,9.9,0,10.48,0c-0.4,0.44-14.51,15.78-14.51,15.78c-0.81,0.88-1.23,2.01-1.23,3.38l0,0.18
							c0.08,1.66,1.36,3.5,3.99,3.61l0.26,0.01h20.88c0.45,0,0.89-0.06,1.3-0.18c1.56-0.52,2.61-1.97,2.61-3.62
							c0-1.65-1.05-3.1-2.61-3.62l0,0c-0.41-0.12-0.85-0.18-1.3-0.18c0,0-11.53,0-12.11,0c0.4-0.43,14.24-15.61,14.24-15.61
							c0.92-0.99,1.45-2.14,1.45-3.16l-0.01-0.4c-0.04-0.69-0.2-1.31-0.48-1.84c-0.43-0.84-1.14-1.45-2.05-1.74
							c-0.44-0.14-0.92-0.21-1.43-0.21H161.76z"/>
					</g>
				</g>
			</g>
		</g>
		<g>
			<rect x="173.3" y="21.28" class="st2" width="3.9" height="48"/>
			<path class="st3" d="M175.25,21.28L175.25,21.28c-5.88,0-10.64-4.76-10.64-10.64v0c0-5.88,4.76-10.64,10.64-10.64l0,0
				c5.88,0,10.64,4.76,10.64,10.64v0C185.89,16.52,181.13,21.28,175.25,21.28z"/>
			<path class="st4" d="M168.87,10.64c0-3.52,2.86-6.38,6.38-6.38c0.88,0,1.72,0.18,2.48,0.5"/>
		</g>
		<path class="st16" d="M150.28,200.47c0,0,6.39,10.71,20.46,12.3c14.08,1.59,23.36-6.82,23.36-6.82l0.81-6.45"/>
	</g>
</g>
</svg>
