<?xml version="1.0" encoding="utf-8"?>
<!-- Generator: Adobe Illustrator 24.0.1, SVG Export Plug-In . SVG Version: 6.00 Build 0)  -->
<svg version="1.1" xmlns="http://www.w3.org/2000/svg" xmlns:xlink="http://www.w3.org/1999/xlink" x="0px" y="0px"
	 viewBox="0 0 360.33 351.33" style="enable-background:new 0 0 360.33 351.33;" xml:space="preserve">
<style type="text/css">
	.st0{display:none;}
	.st1{display:inline;fill:#1C75BC;}
	.st2{clip-path:url(#SVGID_2_);}
	.st3{fill:#2B629B;}
	.st4{fill:#0B528C;}
	.st5{fill:#084279;}
	.st6{fill:none;stroke:#D6DFEB;stroke-width:8;stroke-linecap:round;stroke-linejoin:round;stroke-miterlimit:10;}
	.st7{fill:#FFFFFF;}
	.st8{fill:none;stroke:#E1E5E5;stroke-width:4;stroke-linecap:round;stroke-linejoin:round;stroke-miterlimit:10;}
	.st9{fill:#D6DFEB;}
	.st10{fill:#FFFFFF;stroke:#000000;stroke-width:3;stroke-miterlimit:10;}
	.st11{fill:none;stroke:#000000;stroke-width:4;stroke-linecap:round;stroke-linejoin:round;stroke-miterlimit:10;}
	.st12{fill:none;stroke:#000000;stroke-width:3;stroke-linecap:round;stroke-linejoin:round;stroke-miterlimit:10;}
	.st13{fill:none;stroke:#231F20;stroke-miterlimit:10;}
	.st14{fill:none;stroke:#231F20;stroke-width:4;stroke-miterlimit:10;}
	.st15{fill:#BE1E2D;}
	.st16{fill:none;stroke:#D6DFEB;stroke-width:2;stroke-linecap:round;stroke-linejoin:round;stroke-miterlimit:10;}
	.st17{fill:none;stroke:#D6DFEB;stroke-width:4;stroke-linecap:round;stroke-linejoin:round;stroke-miterlimit:10;}
</style>
<g id="bg_color" class="st0">
	<rect class="st1" width="367.99" height="357.11"/>
</g>
<g id="set_of_emotion_face">
	<g>
		<g>
			<defs>
				<circle id="SVGID_1_" cx="184.77" cy="175.5" r="170"/>
			</defs>
			<use xlink:href="#SVGID_1_"  style="overflow:visible;fill:#D2E3F2;"/>
			<clipPath id="SVGID_2_">
				<use xlink:href="#SVGID_1_"  style="overflow:visible;"/>
			</clipPath>
			<g class="st2">
				<g>
					<path class="st3" d="M342.15,370.14L342.15,370.14c3.03-1.8,4.03-5.72,2.22-8.75L273.69,242.5c-1.8-3.03-5.72-4.03-8.75-2.22
						l0,0c-3.03,1.8-4.03,5.72-2.22,8.75l70.69,118.89C335.2,370.94,339.12,371.94,342.15,370.14z"/>
				</g>
				<g>
					<path class="st4" d="M227.45,194.48l0.52,24.48l-56.16,1.19l-0.52-24.48c8.8,3.11,18.31,4.7,28.19,4.49
						S218.79,197.96,227.45,194.48z"/>
					<path class="st5" d="M227.4,192.27l0.27,12.98c-7.15,3.59-15.23,3.56-23.76,3.74c-12.06,0.25-23.33-4.42-32.57-10.77
						l-0.08-3.69c6.97,3.91,14.85,4.22,23.35,4.79C206.58,200.1,217.92,198.11,227.4,192.27z"/>
					<path class="st3" d="M266.67,356.64l8.53-99.44c0-0.04,0.01-0.09,0-0.14c-0.57-25.23-21.47-45.24-46.71-44.71l-59.22,1.25
						c-25.24,0.53-45.27,21.41-44.78,46.64c0,0.05,0,0.09,0.01,0.13l12.73,98.99"/>
					<path class="st4" d="M261.9,344.25l12.65-98.46c0.87,3.36,1.37,6.86,1.46,10.47c0,0.05-0.01,0.1-0.01,0.14l-8.53,99.44"/>
					<path class="st6" d="M151.26,350.35l-0.01-0.36l-11.46-89.13c-0.22-18.85,14.86-34.46,33.74-34.86l53.29-1.13"/>
				</g>
				<g>
					<path class="st7" d="M229.24,320.21c0.01,0,0.02,0,0.03,0c-0.02,0-0.03,0-0.05,0C229.23,320.21,229.23,320.21,229.24,320.21z"
						/>
					<g>
						<path class="st7" d="M233.23,291.43c0,0-0.15,0.55-0.15,0.55l-0.19,0.82c0,0-3.08,13.69-3.57,15.85
							c-0.12-0.57-3.08-14.22-3.08-14.22c-0.13-0.58-0.31-1.34-0.53-2.04l-0.2-0.58c-0.86-2.07-2.86-3.41-5.1-3.41
							c-2.14,0-4.11,1.26-5.01,3.2c-0.16,0.41-0.3,0.86-0.43,1.39c-0.13,0.49-0.23,1-0.33,1.44c0,0-2.61,12.26-3.04,14.28
							c-0.13-0.55-3.83-15.92-3.83-15.92l-0.16-0.65c-0.1-0.4-0.2-0.72-0.3-1.01c-0.71-1.66-2.33-2.73-4.12-2.73
							c-1.3,0-2.55,0.57-3.42,1.56c-0.64,0.73-1.01,1.63-1.08,2.6c0,0-0.01,0.2-0.01,0.2c0,0.27,0.01,0.53,0.04,0.79
							c0.09,0.93,0.32,1.68,0.55,2.39l6,19.54l0.13,0.41l0.31,0.9c0.92,2.12,3.01,3.49,5.31,3.5h0.04c2.4-0.01,4.52-1.45,5.4-3.68
							c0-0.01,0.28-0.98,0.28-0.98l0,0c0-0.01,0.05-0.19,0.05-0.19s3.41-13.6,3.53-14.09c0.12,0.5,3.58,14.27,3.58,14.27l0.26,0.91
							c0.85,2.24,3.03,3.75,5.43,3.76h0.05c2.25-0.01,4.32-1.35,5.26-3.4c0.12-0.33,0.24-0.68,0.37-1.09l0.1-0.33l6.01-19.54
							c0.22-0.72,0.46-1.47,0.55-2.39c0.02-0.27,0.04-0.53,0.04-0.79l-0.01-0.2c-0.07-0.97-0.45-1.87-1.08-2.6
							c-0.87-0.98-2.12-1.55-3.41-1.55C235.55,288.4,233.85,289.62,233.23,291.43z"/>
					</g>
				</g>
				<g>
					<g>
						<path class="st7" d="M212.98,247.7l0,33.68c0,2.59,2.11,4.7,4.7,4.7c2.56,0,4.66-2.08,4.7-4.63c0,0,0-0.07,0-0.07v-13.53
							c0-3.62,2.92-5.86,5.63-5.86c3.97,0,4.56,3.18,4.56,5.07v14.31l0,0.08c0.04,2.55,2.15,4.62,4.69,4.62c2.59,0,4.7-2.11,4.7-4.7
							v-15.94c0-7.13-4.09-11.38-10.93-11.38c-3.46,0-6.45,1.2-8.66,3.47c0-0.59,0-9.83,0-9.83v-0.08c-0.05-2.54-2.15-4.62-4.7-4.62
							C215.09,243,212.98,245.11,212.98,247.7z"/>
					</g>
				</g>
				<path class="st7" d="M197.7,315.05c-0.24-0.84-0.55-1.89-0.55-3.94v-13.76c0-5.73-4.89-8.89-13.77-8.89
					c-8.33,0-13.47,3.95-13.47,7.74c0,2.1,1.7,3.81,3.81,3.81c0.91,0,1.75-0.32,2.4-0.86c0.42-0.31,0.8-0.68,1.19-1.06
					c1.26-1.23,2.7-2.63,6.01-2.63c2.27,0,4.7,0.76,4.7,2.9c0,1.87-1.05,2.33-3.12,2.57l-5,0.56c-5.87,0.68-11.87,2.39-11.87,9.9
					c0,5.53,4.95,8.83,9.73,8.83c4.49,0,7.97-1.36,10.87-4.22c0.46,2.73,2.26,4.22,5.18,4.22c2.34,0,4.17-1.59,4.17-3.61
					C198,316.04,197.86,315.58,197.7,315.05z M188.49,308.41c0,3.03-2.75,5.95-7.24,5.95c-2.81,0-4.55-1.52-4.55-3.37
					c0-2.47,1.85-3.54,5.28-4.04l2.98-0.45c0.95-0.17,2.64-0.45,3.54-1.29V308.41z"/>
				<g>
					<polygon class="st7" points="183.5,259.69 183.5,259.69 183.5,259.69 					"/>
					<g>
						<path class="st7" d="M187.28,255.52c-0.44,0-0.87,0.06-1.28,0.18c-1.57,0.51-2.63,1.97-2.63,3.62c0,1.66,1.05,3.11,2.62,3.62
							c0.41,0.12,0.85,0.18,1.29,0.18c0,0,9.9,0,10.48,0c-0.4,0.44-14.51,15.78-14.51,15.78c-0.81,0.88-1.23,2.01-1.23,3.38l0,0.18
							c0.08,1.66,1.36,3.5,3.99,3.61l0.26,0.01h20.88c0.45,0,0.89-0.06,1.3-0.18c1.56-0.52,2.61-1.97,2.61-3.62
							c0-1.65-1.05-3.1-2.61-3.62l0,0c-0.41-0.12-0.85-0.18-1.3-0.18c0,0-11.53,0-12.11,0c0.4-0.43,14.24-15.61,14.24-15.61
							c0.92-0.99,1.45-2.14,1.45-3.16l-0.01-0.4c-0.04-0.69-0.2-1.31-0.48-1.84c-0.43-0.84-1.14-1.45-2.05-1.74
							c-0.44-0.14-0.92-0.21-1.43-0.21H187.28z"/>
					</g>
				</g>
				<g>
					<g>
						<path class="st3" d="M208.85,201.12l-5.22,1.47c-27.74,7.79-56.54-8.38-64.33-36.12l-14.47-51.52
							c-7.79-27.74,8.38-56.54,36.12-64.33l5.22-1.47c27.74-7.79,56.54,8.38,64.33,36.12l14.47,51.52
							C252.76,164.52,236.59,193.33,208.85,201.12z"/>
						<path class="st4" d="M232.01,87.07l13,46.3c8.2,29.19-8.82,59.48-38,67.68c-14.59,4.1-29.46,1.89-41.71-4.98
							c-4.38-2.46-8.43-5.52-12.01-9.11c11.92,9.01,27.45,13.15,43.28,10.16c29.79-5.62,49.38-34.32,43.75-64.11l-8.91-47.26
							c-0.1-0.56-0.22-1.12-0.35-1.66C231.41,85.06,231.72,86.05,232.01,87.07z"/>
						<path class="st8" d="M133.42,114.74c-7.08-25.23,7.67-51.51,32.9-58.6c8.28-2.33,16.68-2.3,24.48-0.32"/>
						<path class="st5" d="M237.86,90.75l-114.61,32.19c-2.66,0.75-5.42-0.8-6.17-3.46l-3.27-11.64c-0.75-2.66,0.8-5.42,3.46-6.17
							l114.61-32.19c2.66-0.75,5.42,0.8,6.17,3.46l3.27,11.64C242.07,87.24,240.52,90,237.86,90.75z"/>
						<path class="st4" d="M228.34,142.66l-34.34,6.2l-32.55,12.58c-7.02,1.97-14.37-2.16-16.34-9.18l-3.58-12.76
							c-1.97-7.02,2.16-14.37,9.18-16.34l34.34-6.2l32.55-12.58c7.02-1.97,14.37,2.16,16.34,9.18l3.58,12.76
							C239.49,133.34,235.36,140.69,228.34,142.66z"/>
						<path class="st9" d="M225.1,140.84l-34.34,6.2l-32.55,12.58c-7.02,1.97-14.37-2.16-16.34-9.18l-3.58-12.76
							c-1.97-7.02,2.16-14.37,9.18-16.34l34.34-6.2l32.55-12.58c7.02-1.97,14.37,2.16,16.34,9.18l3.58,12.76
							C236.24,131.52,232.11,138.87,225.1,140.84z"/>
					</g>
					<g>
						<path class="st10" d="M174.44,137c1.81,6.43-1.93,13.11-8.37,14.92c-6.43,1.81-13.11-1.94-14.92-8.38
							c-1.06-3.76-0.22-7.59,1.95-10.49c2.08-0.31,4.44-0.91,6.91-2.03c1.78-0.81,3.32-1.74,4.65-2.7
							C169.2,129.03,173.12,132.29,174.44,137z"/>
						<path class="st11" d="M169.88,123.33c-0.97,1.22-2.67,3.14-5.21,4.98c-1.33,0.96-2.87,1.9-4.65,2.7
							c-2.47,1.12-4.84,1.72-6.91,2.03c-2.67,0.4-4.86,0.32-6.2,0.2"/>
						<path d="M171.22,143.41c1.06,3.78,0.36,7.29-1.58,7.83c-1.93,0.54-4.36-2.08-5.43-5.87c-1.06-3.78-0.36-7.29,1.58-7.83
							C167.73,137,170.16,139.63,171.22,143.41z"/>
						<path class="st10" d="M199.52,129.95c1.81,6.43,8.48,10.18,14.91,8.38c6.43-1.81,10.18-8.49,8.38-14.92
							c-1.06-3.76-3.76-6.59-7.13-7.94c-1.93,0.82-4.27,1.54-6.96,1.87c-1.94,0.24-3.74,0.24-5.38,0.11
							C199.85,120.42,198.2,125.24,199.52,129.95z"/>
						<path class="st11" d="M221.08,112.42c-1.09,0.8-2.91,2.01-5.4,3.06c-1.93,0.82-4.27,1.54-6.96,1.87
							c-1.94,0.24-3.75,0.24-5.38,0.11c-3.13-0.25-5.58-1-7.04-1.54"/>
						<path d="M205.61,133.76c1.06,3.78,3.49,6.41,5.43,5.87c1.93-0.54,2.64-4.05,1.58-7.83c-1.06-3.78-3.49-6.41-5.43-5.87
							C205.25,126.47,204.54,129.97,205.61,133.76z"/>
						<path class="st12" d="M171.72,171.59c0,0,11.88-7.61,26.28-11.47c14.4-3.86,28.36-1.09,28.36-1.09l1.85,6.58"/>
					</g>
				</g>
				<path class="st13" d="M129.83,36"/>
				<g>
					<path class="st14" d="M163.73,49.83c-5.82-22.35-33.05-43.58-67.41-30.26"/>
					<g>
						<path class="st15" d="M100.39,29.42L100.39,29.42c-5.43,2.25-11.65-0.33-13.9-5.76l0,0c-2.25-5.43,0.33-11.65,5.76-13.9l0,0
							c5.43-2.25,11.65,0.33,13.9,5.76l0,0C108.4,20.95,105.82,27.17,100.39,29.42z"/>
						<path class="st16" d="M90.42,22.03c-1.35-3.25,0.2-6.99,3.45-8.34"/>
					</g>
				</g>
				<g>
					<path class="st3" d="M5.49,184.42L5.49,184.42c-1.58,2.92-0.49,6.56,2.43,8.13l114.37,61.8c2.92,1.58,6.56,0.49,8.13-2.43l0,0
						c1.58-2.92,0.49-6.56-2.43-8.13l-114.37-61.8C10.71,180.42,7.07,181.51,5.49,184.42z"/>
					<g>
						<g>
							<path class="st15" d="M132.88,138.4l-1.14-4.06c-0.3-1.06-1.4-1.68-2.47-1.39l-18.1,5.07c-1.06,0.3-1.68,1.4-1.39,2.47
								l1.14,4.06c0.3,1.06,1.4,1.68,2.47,1.39l18.1-5.07C132.56,140.57,133.18,139.46,132.88,138.4z"/>
							<path class="st15" d="M137.31,154.23l-1.14-4.06c-0.3-1.06-1.4-1.68-2.47-1.39l-18.1,5.07c-1.06,0.3-1.68,1.4-1.39,2.47
								l1.14,4.06c0.3,1.06,1.4,1.68,2.47,1.39l18.1-5.07C136.99,156.4,137.61,155.29,137.31,154.23z"/>
							<path class="st15" d="M141.75,170.06l-1.14-4.06c-0.3-1.06-1.4-1.68-2.47-1.39l-18.1,5.07c-1.06,0.3-1.68,1.4-1.39,2.47
								l1.14,4.06c0.3,1.06,1.4,1.68,2.47,1.39l18.1-5.07C141.42,172.23,142.04,171.12,141.75,170.06z"/>
						</g>
						<path class="st4" d="M109.9,132.9c1.11-0.32,2.22-0.62,3.33-0.92c1.05-0.28,2.14,0.34,2.44,1.39l13.18,46.31
							c0.3,1.05-0.3,2.15-1.34,2.46c-1.1,0.33-2.2,0.65-3.31,0.97c-42.64,12.13-109.26,18.94-113.2,5.07S67.26,145.03,109.9,132.9z"
							/>
						<path class="st6" d="M120.75,176.8c-19.21,5.33-43.61,9.64-64.12,11.31c-11.54,0.94-20,0.92-26.06,0.47"/>
					</g>
					<g>
						
							<ellipse transform="matrix(0.6638 -0.7479 0.7479 0.6638 -137.7869 73.842)" class="st5" cx="13.24" cy="190.18" rx="11.49" ry="14.47"/>
						<path class="st17" d="M20.88,196.96c2.6-2.93,1.31-8.52-2.84-12.19c-1.35-1.2-2.86-2.07-4.37-2.6"/>
					</g>
				</g>
			</g>
			<use xlink:href="#SVGID_1_"  style="overflow:visible;fill:none;stroke:#FFFFFF;stroke-width:10;stroke-miterlimit:10;"/>
		</g>
		<g>
			<path class="st14" d="M163.73,49.83c-5.82-22.35-33.05-43.58-67.41-30.26"/>
			<g>
				<path class="st15" d="M100.39,29.42L100.39,29.42c-5.43,2.25-11.65-0.33-13.9-5.76l0,0c-2.25-5.43,0.33-11.65,5.76-13.9l0,0
					c5.43-2.25,11.65,0.33,13.9,5.76l0,0C108.4,20.95,105.82,27.17,100.39,29.42z"/>
				<path class="st16" d="M90.42,22.03c-1.35-3.25,0.2-6.99,3.45-8.34"/>
			</g>
		</g>
		<g>
			<path class="st3" d="M5.49,184.42L5.49,184.42c-1.58,2.92-0.49,6.56,2.43,8.13l114.37,61.8c2.92,1.58,6.56,0.49,8.13-2.43l0,0
				c1.58-2.92,0.49-6.56-2.43-8.13l-114.37-61.8C10.71,180.42,7.07,181.51,5.49,184.42z"/>
			<g>
				<g>
					<path class="st15" d="M132.88,138.4l-1.14-4.06c-0.3-1.06-1.4-1.68-2.47-1.39l-18.1,5.07c-1.06,0.3-1.68,1.4-1.39,2.47
						l1.14,4.06c0.3,1.06,1.4,1.68,2.47,1.39l18.1-5.07C132.56,140.57,133.18,139.46,132.88,138.4z"/>
					<path class="st15" d="M137.31,154.23l-1.14-4.06c-0.3-1.06-1.4-1.68-2.47-1.39l-18.1,5.07c-1.06,0.3-1.68,1.4-1.39,2.47
						l1.14,4.06c0.3,1.06,1.4,1.68,2.47,1.39l18.1-5.07C136.99,156.4,137.61,155.29,137.31,154.23z"/>
					<path class="st15" d="M141.75,170.06l-1.14-4.06c-0.3-1.06-1.4-1.68-2.47-1.39l-18.1,5.07c-1.06,0.3-1.68,1.4-1.39,2.47
						l1.14,4.06c0.3,1.06,1.4,1.68,2.47,1.39l18.1-5.07C141.42,172.23,142.04,171.12,141.75,170.06z"/>
				</g>
				<path class="st4" d="M109.9,132.9c1.11-0.32,2.22-0.62,3.33-0.92c1.05-0.28,2.14,0.34,2.44,1.39l13.18,46.31
					c0.3,1.05-0.3,2.15-1.34,2.46c-1.1,0.33-2.2,0.65-3.31,0.97c-42.64,12.13-109.26,18.94-113.2,5.07S67.26,145.03,109.9,132.9z"/>
				<path class="st6" d="M120.75,176.8c-19.21,5.33-43.61,9.64-64.12,11.31c-11.54,0.94-20,0.92-26.06,0.47"/>
			</g>
			<g>
				
					<ellipse transform="matrix(0.6638 -0.7479 0.7479 0.6638 -137.7869 73.842)" class="st5" cx="13.24" cy="190.18" rx="11.49" ry="14.47"/>
				<path class="st17" d="M20.88,196.96c2.6-2.93,1.31-8.52-2.84-12.19c-1.35-1.2-2.86-2.07-4.37-2.6"/>
			</g>
		</g>
	</g>
</g>
</svg>
